<svg id="Back-btn" xmlns="http://www.w3.org/2000/svg" xmlns:xlink="http://www.w3.org/1999/xlink" width="58" height="58" viewBox="0 0 58 58">
  <defs>
    <radialGradient id="radial-gradient" cx="0.5" cy="0.5" r="0.626" gradientTransform="translate(0 0.02) scale(1 0.961)" gradientUnits="objectBoundingBox">
      <stop offset="0" stop-color="#00865b"/>
      <stop offset="1" stop-color="#00432e"/>
    </radialGradient>
    <filter id="Path_20546" x="0" y="0" width="58" height="58" filterUnits="userSpaceOnUse">
      <feOffset dy="4" input="SourceAlpha"/>
      <feGaussianBlur stdDeviation="4" result="blur"/>
      <feFlood flood-opacity="0.251" result="color"/>
      <feComposite operator="out" in="SourceGraphic" in2="blur"/>
      <feComposite operator="in" in="color"/>
      <feComposite operator="in" in2="SourceGraphic"/>
    </filter>
    <linearGradient id="linear-gradient" x1="1.065" y1="0.5" x2="0.257" y2="0.5" gradientUnits="objectBoundingBox">
      <stop offset="0" stop-color="#0052a1"/>
      <stop offset="1" stop-color="#0072bb" stop-opacity="0"/>
    </linearGradient>
    <linearGradient id="linear-gradient-2" x1="0" y1="0.5" x2="1" y2="0.5" xlink:href="#linear-gradient"/>
  </defs>
  <g id="Button-bg-02">
    <g data-type="innerShadowGroup">
      <path id="Path_20546-2" data-name="Path 20546" d="M10.357,0H47.643A10.357,10.357,0,0,1,58,10.357V47.643A10.357,10.357,0,0,1,47.643,58H10.357A10.357,10.357,0,0,1,0,47.643V10.357A10.357,10.357,0,0,1,10.357,0Z" fill="url(#radial-gradient)"/>
      <g transform="matrix(1, 0, 0, 1, 0, 0)" filter="url(#Path_20546)">
        <path id="Path_20546-3" data-name="Path 20546" d="M10.357,0H47.643A10.357,10.357,0,0,1,58,10.357V47.643A10.357,10.357,0,0,1,47.643,58H10.357A10.357,10.357,0,0,1,0,47.643V10.357A10.357,10.357,0,0,1,10.357,0Z" fill="#fff"/>
      </g>
    </g>
    <path id="Path_19771_-_Outline" data-name="Path 19771 - Outline" d="M10.357,2.071a8.286,8.286,0,0,0-8.286,8.286V47.643a8.286,8.286,0,0,0,8.286,8.286H47.643a8.286,8.286,0,0,0,8.286-8.286V10.357a8.286,8.286,0,0,0-8.286-8.286H10.357m0-2.071H47.643A10.357,10.357,0,0,1,58,10.357V47.643A10.357,10.357,0,0,1,47.643,58H10.357A10.357,10.357,0,0,1,0,47.643V10.357A10.357,10.357,0,0,1,10.357,0Z" fill="#6bbfa3"/>
  </g>
  <g id="Group_31542" data-name="Group 31542" transform="translate(12.222 14.5)">
    <g id="Group_31333" data-name="Group 31333" transform="translate(0 0)">
      <path id="Path_19798" data-name="Path 19798" d="M285.695,240.858h-9.112v-4.4c0-2.038-1.6-3.313-2.884-2.293l-6.211,4.939-7.155,5.689a1.973,1.973,0,0,0,0,3.085l7.155,5.69,6.211,4.938c1.282,1.019,2.884-.255,2.884-2.293v-4.4h9.112a3.3,3.3,0,0,0,3.28-3.3v-4.364A3.3,3.3,0,0,0,285.695,240.858Z" transform="translate(-257.503 -231.835)" fill="#003466"/>
      <path id="Path_19799" data-name="Path 19799" d="M273.469,259.691a2.939,2.939,0,0,1-1.835-.663l-14.058-11.171a3.407,3.407,0,0,1,0-5.33l14.059-11.171a2.848,2.848,0,0,1,3.077-.373,4.17,4.17,0,0,1,2.1,3.827V238.1h8.259a4.79,4.79,0,0,1,4.775,4.8v4.587a4.791,4.791,0,0,1-4.775,4.8h-8.259v3.293a4.17,4.17,0,0,1-2.1,3.826A2.833,2.833,0,0,1,273.469,259.691Zm0-26.339a.319.319,0,0,0-.19.09l-14.059,11.172a.739.739,0,0,0,0,1.156l14.058,11.171c.156.123.219.093.28.064a1.59,1.59,0,0,0,.607-1.43v-5.955h10.909a2.132,2.132,0,0,0,2.125-2.134V242.9a2.131,2.131,0,0,0-2.125-2.134H274.165v-5.954a1.59,1.59,0,0,0-.607-1.431A.2.2,0,0,0,273.469,233.352Z" transform="translate(-256.292 -230.691)" fill="#003466"/>
    </g>
    <path id="Path_19800" data-name="Path 19800" d="M260.336,247.221a1.967,1.967,0,0,1,0-3.085l7.186-5.69,6.239-4.938c1.288-1.019,2.9.254,2.9,2.293v19.754c0,2.038-1.609,3.313-2.9,2.293l-6.239-4.939Z" transform="translate(-257.503 -231.594)" fill="#2f9fd1"/>
    <path id="Path_19801" data-name="Path 19801" d="M260.14,244.557s-.619.847.113,1.383,1.823-1.279,1.823-1.279l11.237-8.883s1.633-1.028,1.443-1.916-1.242.053-1.362.147l-12.731,10.073A3.147,3.147,0,0,0,260.14,244.557Z" transform="translate(-257.616 -231.717)" fill="#95daf9"/>
    <g id="Group_31334" data-name="Group 31334" transform="translate(2.813 15.23)">
      <path id="Path_19802" data-name="Path 19802" d="M260.739,255.358c.033.028.06.053.089.075C260.8,255.409,260.769,255.383,260.739,255.358Z" transform="translate(-260.739 -254.968)" fill="#005f97"/>
      <path id="Path_19803" data-name="Path 19803" d="M273.7,263.624l-11.237-8.883a.738.738,0,0,1,.164.892c-.283.481-.91.209-1.68-.393l.1.08,12.731,10.073c.12.094,1.171,1.036,1.362.147S273.7,263.624,273.7,263.624Z" transform="translate(-260.815 -254.741)" fill="#005f97"/>
    </g>
    <path id="Rectangle_11877" data-name="Rectangle 11877" d="M5.475,0H17.759a4.073,4.073,0,0,1,4.073,4.073v2.8A4.073,4.073,0,0,1,17.76,10.95H5.475A5.475,5.475,0,0,1,0,5.475v0A5.475,5.475,0,0,1,5.475,0Z" transform="translate(9.639 8.609)" fill="#2f9fd1"/>
    <path id="Path_19804" data-name="Path 19804" d="M285.95,259.83l-1.065-.74v5.436s.09,1,.459.986.605-.31.605-1.452Z" transform="translate(-266.867 -241.111)" fill="#005f97"/>
    <path id="Path_19805" data-name="Path 19805" d="M286.208,260.269h8.924a3.484,3.484,0,0,0,2.3-.866c1.175-.962.251-1.7-.323-1.319a17.281,17.281,0,0,1-5.9.864,34.5,34.5,0,0,0-5.623.581S286.32,260.321,286.208,260.269Z" transform="translate(-267.184 -240.707)" fill="#005f97"/>
    <path id="Path_19806" data-name="Path 19806" d="M285.138,244.29h8.924a3.484,3.484,0,0,1,2.3.866c1.175.962.251,1.7-.323,1.318a17.313,17.313,0,0,0-5.9-.864c-2.156.064-7.467-.58-7.467-.58S285.25,244.239,285.138,244.29Z" transform="translate(-266.113 -235.681)" fill="#95daf9"/>
    <path id="Path_19807" data-name="Path 19807" d="M274.646,233.7s.073.636-.829,1.384c-.786.651-9.15,7.267-11.325,8.979a3.571,3.571,0,0,0-.747.815c-.235.349-.6.942-1.078,1-.8.1-.781-.729-.781-.729a1.264,1.264,0,0,0,.189.9c.282.31.888.4,2.114,1.356s10.623,8.318,11.557,9.108.957,1.456.8,1.639.454,0,.313-.68.464-1.05.866-2.055.3-4.8.3-4.8-1.452-5.679-1.156-8.387a9.61,9.61,0,0,1,.823-3.553,6.586,6.586,0,0,0,0-2.313c-.259-.705-.95-.748-.851-1.523S274.864,233.828,274.646,233.7Z" transform="translate(-257.607 -231.796)" fill="#c6eafc"/>
    <path id="Path_19808" data-name="Path 19808" d="M263.224,248.224a1.616,1.616,0,0,1,0-2.54L269.158,241l5.151-4.065c1.064-.839,2.393.21,2.393,1.888v16.258c0,1.678-1.329,2.726-2.393,1.887l-5.151-4.064Z" transform="translate(-258.612 -232.877)" fill="#007bb6"/>
    <path id="Path_19809" data-name="Path 19809" d="M263.224,248.224a1.616,1.616,0,0,1,0-2.54L269.158,241l5.151-4.065c1.064-.839,2.393.21,2.393,1.888v16.258c0,1.678-1.329,2.726-2.393,1.887l-5.151-4.064Z" transform="translate(-258.612 -232.877)" fill="#007bb6"/>
    <path id="Rectangle_11878" data-name="Rectangle 11878" d="M4.735,0H15.264a3.523,3.523,0,0,1,3.523,3.523V5.948a3.523,3.523,0,0,1-3.523,3.523H4.735A4.735,4.735,0,0,1,0,4.735v0A4.735,4.735,0,0,1,4.735,0Z" transform="translate(11.827 9.349)" fill="#007bb6"/>
    <path id="Path_19810" data-name="Path 19810" d="M283.046,245.457l-2.808,2.808a1.216,1.216,0,0,0,.86,2.076H294.11a1.59,1.59,0,0,0,1.589-1.589h0a3.3,3.3,0,0,0-3.294-3.294Z" transform="translate(-265.086 -236.11)" fill="#0092cf"/>
    <path id="Path_19811" data-name="Path 19811" d="M292.373,254.8h-7.3a4.442,4.442,0,0,1-4.429-4.429h0a4.442,4.442,0,0,1,4.429-4.429h7.3a3.3,3.3,0,0,1,3.294,3.294v2.269A3.3,3.3,0,0,1,292.373,254.8Z" transform="translate(-265.366 -236.286)" fill="url(#linear-gradient)"/>
    <path id="Path_19812" data-name="Path 19812" d="M285.95,240.989l-1.065.74v-5.436s.09-1,.459-.986.605.31.605,1.451Z" transform="translate(-266.867 -232.386)" fill="#005f97"/>
    <path id="Path_19813" data-name="Path 19813" d="M265.582,249.281a1.254,1.254,0,0,1,0-1.97l4.6-3.633,4-3.154c.825-.651,1.856.163,1.856,1.465V254.6c0,1.3-1.031,2.116-1.856,1.465l-4-3.153Z" transform="translate(-259.561 -234.212)" fill="url(#linear-gradient-2)"/>
  </g>
</svg>
