<svg id="Leaderboard" xmlns="http://www.w3.org/2000/svg" xmlns:xlink="http://www.w3.org/1999/xlink" width="105.509" height="105.509" viewBox="0 0 105.509 105.509">
  <defs>
    <radialGradient id="radial-gradient" cx="0.5" cy="0.5" r="0.626" gradientTransform="translate(0 0.02) scale(1 0.961)" gradientUnits="objectBoundingBox">
      <stop offset="0" stop-color="#00865b"/>
      <stop offset="1" stop-color="#00432e"/>
    </radialGradient>
    <filter id="Path_20546" x="0" y="0" width="105.509" height="105.509" filterUnits="userSpaceOnUse">
      <feOffset dy="4" input="SourceAlpha"/>
      <feGaussianBlur stdDeviation="4" result="blur"/>
      <feFlood flood-opacity="0.251" result="color"/>
      <feComposite operator="out" in="SourceGraphic" in2="blur"/>
      <feComposite operator="in" in="color"/>
      <feComposite operator="in" in2="SourceGraphic"/>
    </filter>
  </defs>
  <g id="Button-bg-02">
    <g data-type="innerShadowGroup">
      <path id="Path_20546-2" data-name="Path 20546" d="M18.841,0H86.668a18.841,18.841,0,0,1,18.841,18.841V86.668a18.841,18.841,0,0,1-18.841,18.841H18.841A18.841,18.841,0,0,1,0,86.668V18.841A18.841,18.841,0,0,1,18.841,0Z" fill="url(#radial-gradient)"/>
      <g transform="matrix(1, 0, 0, 1, 0, 0)" filter="url(#Path_20546)">
        <path id="Path_20546-3" data-name="Path 20546" d="M18.841,0H86.668a18.841,18.841,0,0,1,18.841,18.841V86.668a18.841,18.841,0,0,1-18.841,18.841H18.841A18.841,18.841,0,0,1,0,86.668V18.841A18.841,18.841,0,0,1,18.841,0Z" fill="#fff"/>
      </g>
    </g>
    <path id="Path_19771_-_Outline" data-name="Path 19771 - Outline" d="M18.841,3.768A15.073,15.073,0,0,0,3.768,18.841V86.668a15.073,15.073,0,0,0,15.073,15.073H86.668a15.073,15.073,0,0,0,15.073-15.073V18.841A15.073,15.073,0,0,0,86.668,3.768H18.841m0-3.768H86.668a18.841,18.841,0,0,1,18.841,18.841V86.668a18.841,18.841,0,0,1-18.841,18.841H18.841A18.841,18.841,0,0,1,0,86.668V18.841A18.841,18.841,0,0,1,18.841,0Z" fill="#6bbfa3"/>
  </g>
  <g id="Group_31913" data-name="Group 31913" transform="translate(23.859 19.529)">
    <g id="Group_31374" data-name="Group 31374" transform="translate(0 29.651)">
      <path id="Path_19955" data-name="Path 19955" d="M51.8,242.932l-.826.373c-10.334,4.662-18.958,21.838-19.308,24.758a2.335,2.335,0,0,0,.617,2.05c.482.456,1.129,1.068,7.607-.629,1.527,9.426,2.654,9.864,3.344,10.132a1.588,1.588,0,0,0,.576.118c1.253,0,2.034-1.847,3.319-4.885,1.48-3.5,3.717-8.789,6.569-11.38a42,42,0,0,1,8.087-6.063l2.334-1.16Z" transform="translate(-31.638 -242.932)" fill="#7f281a"/>
      <path id="Path_19956" data-name="Path 19956" d="M53.479,246.664c-10.321,4.656-18.964,22.856-18.293,23.491s7.888-1.376,7.888-1.376,1.51,10.158,2.6,10.582,4.01-11.216,9.138-15.872a42.469,42.469,0,0,1,8.416-6.29Z" transform="translate(-33.638 -245.058)" fill="#e43518"/>
      <path id="Path_19957" data-name="Path 19957" d="M64.177,256.237a60.079,60.079,0,0,0-9.477,9.331,52.116,52.116,0,0,0-6.734,11.489c-.337-1.58-.634-3.263-.835-4.474a50.084,50.084,0,0,1,5.818-9.3,63.617,63.617,0,0,1,9.222-9.219ZM44.97,271.379a39.709,39.709,0,0,1,6.243-10.095,62.6,62.6,0,0,1,9.548-8.739l-2.026-2.189a67.256,67.256,0,0,0-9.181,8.539c-3.649,4.029-6.247,9.448-7.761,13.2C42.852,271.894,44.02,271.618,44.97,271.379Z" transform="translate(-37.424 -247.162)" fill="#f99f00"/>
      <path id="Path_19958" data-name="Path 19958" d="M60.5,277.246a19.224,19.224,0,0,1,2.972-3.918l-9.884-9.852c-.978,1.147-1.9,2.345-2.764,3.549Z" transform="translate(-42.568 -254.637)" fill="#f26719"/>
      <g id="Group_31373" data-name="Group 31373" transform="translate(10.065 10.802)">
        <path id="Path_19959" data-name="Path 19959" d="M56.965,273.58a26.633,26.633,0,0,1,1.789-2.222c.413-.456.818-.889,1.217-1.309l-2.017-2.011c-.283.3-.569.612-.858.932a30.03,30.03,0,0,0-2.065,2.567Z" transform="translate(-55.031 -268.038)" fill="#ffd900"/>
        <path id="Path_19960" data-name="Path 19960" d="M66.806,276.882c-.423.487-.851.991-1.282,1.518-.576.7-1.128,1.439-1.656,2.192l1.937,2.046c.473-.672.959-1.333,1.471-1.958s1.028-1.231,1.533-1.8Z" transform="translate(-60.066 -273.077)" fill="#ffd900"/>
      </g>
    </g>
    <g id="Group_31376" data-name="Group 31376" transform="translate(25.314 29.651)">
      <path id="Path_19961" data-name="Path 19961" d="M102.793,242.932l.826.373c10.334,4.662,18.958,21.838,19.307,24.758a2.335,2.335,0,0,1-.617,2.05c-.482.456-1.129,1.068-7.607-.629-1.527,9.426-2.654,9.864-3.344,10.132a1.588,1.588,0,0,1-.576.118c-1.253,0-2.034-1.847-3.319-4.885-1.48-3.5-3.717-8.789-6.569-11.38a42,42,0,0,0-8.087-6.063l-2.334-1.16Z" transform="translate(-90.472 -242.932)" fill="#7f281a"/>
      <path id="Path_19962" data-name="Path 19962" d="M106.934,246.664c10.321,4.656,18.964,22.856,18.293,23.491s-7.888-1.376-7.888-1.376-1.51,10.158-2.6,10.582-4.01-11.216-9.138-15.872a42.454,42.454,0,0,0-8.416-6.29Z" transform="translate(-94.296 -245.058)" fill="#e43518"/>
      <path id="Path_19963" data-name="Path 19963" d="M105.787,254.068a63.617,63.617,0,0,1,9.222,9.219,50.083,50.083,0,0,1,5.818,9.3c-.2,1.211-.5,2.894-.835,4.474a52.131,52.131,0,0,0-6.734-11.489,60.117,60.117,0,0,0-9.477-9.331ZM126.162,272.1c-1.514-3.752-4.112-9.171-7.761-13.2a67.258,67.258,0,0,0-9.181-8.539l-2.026,2.189a62.6,62.6,0,0,1,9.548,8.739,39.712,39.712,0,0,1,6.244,10.095C123.936,271.618,125.1,271.894,126.162,272.1Z" transform="translate(-98.054 -247.162)" fill="#f99f00"/>
      <path id="Path_19964" data-name="Path 19964" d="M120.346,277.246a19.208,19.208,0,0,0-2.972-3.918l9.884-9.852c.978,1.147,1.9,2.345,2.764,3.549Z" transform="translate(-105.799 -254.637)" fill="#f26719"/>
      <g id="Group_31375" data-name="Group 31375" transform="translate(13.67 10.802)">
        <path id="Path_19965" data-name="Path 19965" d="M134.087,273.58a26.721,26.721,0,0,0-1.789-2.222c-.413-.456-.817-.889-1.217-1.309l2.017-2.011c.283.3.569.612.858.932a30.035,30.035,0,0,1,2.065,2.567Z" transform="translate(-127.278 -268.038)" fill="#ffd900"/>
        <path id="Path_19966" data-name="Path 19966" d="M124.245,276.882c.423.487.851.991,1.282,1.518.576.7,1.128,1.439,1.657,2.192l-1.937,2.046c-.473-.672-.959-1.333-1.47-1.958s-1.028-1.231-1.533-1.8Z" transform="translate(-122.243 -273.077)" fill="#ffd900"/>
      </g>
    </g>
    <g id="Group_31377" data-name="Group 31377" transform="translate(2.344 0)">
      <circle id="Ellipse_11" data-name="Ellipse 11" cx="18.557" cy="18.557" r="18.557" transform="translate(0 26.244) rotate(-45)" fill="#7f281a"/>
      <circle id="Ellipse_12" data-name="Ellipse 12" cx="16.269" cy="16.269" r="16.269" transform="translate(3.236 25.569) rotate(-45)" fill="#f26611"/>
      <path id="Path_19967" data-name="Path 19967" d="M76.615,195.634A16.267,16.267,0,0,0,60.4,210.578c.1,8.469,7.319,15.305,16.211,15.305s16.107-6.836,16.211-15.305A16.267,16.267,0,0,0,76.615,195.634Z" transform="translate(-50.371 -186.334)" fill="#ffcb00"/>
      <path id="Path_19968" data-name="Path 19968" d="M76.615,195.634A16.267,16.267,0,0,0,60.4,210.578a14.854,14.854,0,0,0,.583,3.941,17.4,17.4,0,0,0,31.256,0,14.836,14.836,0,0,0,.583-3.941A16.267,16.267,0,0,0,76.615,195.634Z" transform="translate(-50.371 -186.334)" fill="#fdae00"/>
      <path id="Path_19969" data-name="Path 19969" d="M82.771,199.242c.293,1.711,3.128,3.054,6.587,3.054s6.294-1.343,6.587-3.054c-.293-2.039-3.128-3.639-6.587-3.639S83.064,197.2,82.771,199.242Z" transform="translate(-63.114 -186.316)" fill="#ffcb00"/>
      <ellipse id="Ellipse_13" data-name="Ellipse 13" cx="11.111" cy="11.111" rx="11.111" ry="11.111" transform="translate(15.133 12.633)" fill="#7f281a"/>
      <ellipse id="Ellipse_14" data-name="Ellipse 14" cx="9.47" cy="9.47" rx="9.47" ry="9.47" transform="translate(16.773 14.591)" fill="#ffcb00"/>
      <path id="Path_19970" data-name="Path 19970" d="M76.166,216.574c.42,4.065,4.478,7.255,9.429,7.255s9.009-3.19,9.429-7.255a9.465,9.465,0,0,0-18.858,0Z" transform="translate(-59.351 -193.339)" fill="#fdae00"/>
      <path id="Path_19971" data-name="Path 19971" d="M93.477,222.776l1.008,1.3a.709.709,0,0,0,.319.232l1.544.558a.71.71,0,0,1,.346,1.066l-.921,1.359a.709.709,0,0,0-.122.375L95.6,229.3a.71.71,0,0,1-.907.659l-1.577-.456a.714.714,0,0,0-.394,0l-1.577.456a.71.71,0,0,1-.907-.659l-.053-1.64a.708.708,0,0,0-.122-.375l-.921-1.359a.71.71,0,0,1,.346-1.066l1.544-.558a.709.709,0,0,0,.319-.232l1.008-1.3A.709.709,0,0,1,93.477,222.776Z" transform="translate(-66.673 -201.641)" fill="#ffcb00"/>
      <path id="Path_19972" data-name="Path 19972" d="M85.538,211.569c.24,1.711,2.563,3.054,5.4,3.054s5.156-1.343,5.4-3.054c-.24-2.039-2.563-3.638-5.4-3.638S85.778,209.531,85.538,211.569Z" transform="translate(-64.691 -193.34)" fill="#ffcb00"/>
      <path id="Path_19973" data-name="Path 19973" d="M92.577,210.48c.105.75,1.124,1.34,2.368,1.34s2.262-.589,2.368-1.34a2.554,2.554,0,0,0-4.736,0Z" transform="translate(-68.701 -193.882)" fill="#f8e52d"/>
      <path id="Path_19974" data-name="Path 19974" d="M92.577,198.152c.105.751,1.124,1.34,2.368,1.34s2.262-.589,2.368-1.34a2.554,2.554,0,0,0-4.736,0Z" transform="translate(-68.701 -186.859)" fill="#f8e52d"/>
      <path id="Path_19975" data-name="Path 19975" d="M92.577,263.08c.105.419,1.124.748,2.368.748s2.262-.329,2.368-.748c-.105-.5-1.124-.892-2.368-.892S92.682,262.58,92.577,263.08Z" transform="translate(-68.701 -224.252)" fill="#f8e52d"/>
      <path id="Path_19976" data-name="Path 19976" d="M93.762,221.826l.945,1.215a.662.662,0,0,0,.3.218l1.448.523a.665.665,0,0,1,.325,1l-.864,1.274a.66.66,0,0,0-.114.352l-.05,1.539a.666.666,0,0,1-.85.618l-1.479-.428a.669.669,0,0,0-.37,0l-1.479.428a.666.666,0,0,1-.85-.618l-.05-1.539a.663.663,0,0,0-.114-.352l-.864-1.274a.665.665,0,0,1,.325-1l1.448-.523a.662.662,0,0,0,.3-.218l.945-1.215A.665.665,0,0,1,93.762,221.826Z" transform="translate(-66.993 -201.11)" fill="#7f281a"/>
    </g>
  </g>
</svg>
