<svg xmlns="http://www.w3.org/2000/svg" width="42.246" height="45.389" viewBox="0 0 42.246 45.389">
  <g id="Wrong-answer" transform="translate(5540.717 20873.768)">
    <rect id="Rectangle_12178" data-name="Rectangle 12178" width="48.991" height="9.421" transform="matrix(0.695, 0.719, -0.719, 0.695, -5533.94, -20870.164)" fill="#5e0b17"/>
    <rect id="Rectangle_12177" data-name="Rectangle 12177" width="48.991" height="9.421" transform="translate(-5498.471 -20863.504) rotate(135)" fill="#5e0b17"/>
    <rect id="Rectangle_12179" data-name="Rectangle 12179" width="48.991" height="9.421" transform="matrix(0.695, 0.719, -0.719, 0.695, -5533.94, -20873.768)" fill="#e50019"/>
    <rect id="Rectangle_12183" data-name="Rectangle 12183" width="5.24" height="9.421" transform="matrix(0.695, 0.719, -0.719, 0.695, -5506.747, -20845.504)" fill="#ee5640"/>
    <rect id="Rectangle_12184" data-name="Rectangle 12184" width="5.24" height="9.421" transform="translate(-5526.498 -20865.994) rotate(47)" fill="#ee5640"/>
    <rect id="Rectangle_12180" data-name="Rectangle 12180" width="5.24" height="9.421" transform="matrix(0.695, 0.719, -0.719, 0.695, -5513.535, -20852.875)" fill="#ee5640"/>
    <rect id="Rectangle_12181" data-name="Rectangle 12181" width="5.24" height="9.421" transform="matrix(0.695, 0.719, -0.719, 0.695, -5510.201, -20849.271)" fill="#f3795c"/>
    <rect id="Rectangle_12185" data-name="Rectangle 12185" width="5.24" height="9.421" transform="matrix(0.695, 0.719, -0.719, 0.695, -5530.29, -20869.852)" fill="#f3795c"/>
    <rect id="Rectangle_12182" data-name="Rectangle 12182" width="48.991" height="9.421" transform="translate(-5499.413 -20867.105) rotate(135)" fill="#e50019"/>
  </g>
</svg>
