<svg id="Home-btn" xmlns="http://www.w3.org/2000/svg" xmlns:xlink="http://www.w3.org/1999/xlink" width="105.509" height="105.509" viewBox="0 0 105.509 105.509">
  <defs>
    <radialGradient id="radial-gradient" cx="0.5" cy="0.5" r="0.626" gradientTransform="translate(0 0.02) scale(1 0.961)" gradientUnits="objectBoundingBox">
      <stop offset="0" stop-color="#00865b"/>
      <stop offset="1" stop-color="#00432e"/>
    </radialGradient>
    <filter id="Path_20546" x="0" y="0" width="105.509" height="105.509" filterUnits="userSpaceOnUse">
      <feOffset dy="4" input="SourceAlpha"/>
      <feGaussianBlur stdDeviation="4" result="blur"/>
      <feFlood flood-opacity="0.251" result="color"/>
      <feComposite operator="out" in="SourceGraphic" in2="blur"/>
      <feComposite operator="in" in="color"/>
      <feComposite operator="in" in2="SourceGraphic"/>
    </filter>
  </defs>
  <g id="Button-bg-02">
    <g data-type="innerShadowGroup">
      <path id="Path_20546-2" data-name="Path 20546" d="M18.841,0H86.668a18.841,18.841,0,0,1,18.841,18.841V86.668a18.841,18.841,0,0,1-18.841,18.841H18.841A18.841,18.841,0,0,1,0,86.668V18.841A18.841,18.841,0,0,1,18.841,0Z" fill="url(#radial-gradient)"/>
      <g transform="matrix(1, 0, 0, 1, 0, 0)" filter="url(#Path_20546)">
        <path id="Path_20546-3" data-name="Path 20546" d="M18.841,0H86.668a18.841,18.841,0,0,1,18.841,18.841V86.668a18.841,18.841,0,0,1-18.841,18.841H18.841A18.841,18.841,0,0,1,0,86.668V18.841A18.841,18.841,0,0,1,18.841,0Z" fill="#fff"/>
      </g>
    </g>
    <path id="Path_19771_-_Outline" data-name="Path 19771 - Outline" d="M18.841,3.768A15.073,15.073,0,0,0,3.768,18.841V86.668a15.073,15.073,0,0,0,15.073,15.073H86.668a15.073,15.073,0,0,0,15.073-15.073V18.841A15.073,15.073,0,0,0,86.668,3.768H18.841m0-3.768H86.668a18.841,18.841,0,0,1,18.841,18.841V86.668a18.841,18.841,0,0,1-18.841,18.841H18.841A18.841,18.841,0,0,1,0,86.668V18.841A18.841,18.841,0,0,1,18.841,0Z" fill="#6bbfa3"/>
  </g>
  <g id="Group_31540" data-name="Group 31540" transform="translate(23.363 26.378)">
    <path id="Path_19788" data-name="Path 19788" d="M397.94,105.1l-1.368-1.328a6.218,6.218,0,0,0-.458-.445L377.592,85.347l.038-.038-2.71-2.556a6.321,6.321,0,0,0-8.849,0L361.6,87.09a4.553,4.553,0,0,0-4.378-3.345h-5.411a4.552,4.552,0,0,0-4.543,4.563V101l-3.824,3.711-.677.7a7.422,7.422,0,0,0-1.57,4.355,6.246,6.246,0,0,0,.282,2.066,6.4,6.4,0,0,0,3.311,3.663,4.71,4.71,0,0,0,2.273.593h.2v12.122a5.471,5.471,0,0,0,5.458,5.484H388.26a5.471,5.471,0,0,0,5.459-5.484V116.094h.2a4.573,4.573,0,0,0,.983-.107,5.044,5.044,0,0,0,2.654-1.348,6.474,6.474,0,0,0,2.318-4.665A6.279,6.279,0,0,0,397.94,105.1Z" transform="translate(-341.104 -80.946)" fill="#5f6164"/>
    <rect id="Rectangle_11871" data-name="Rectangle 11871" width="40.694" height="27.445" rx="2.732" transform="translate(9.044 21.658)" fill="#fff"/>
    <rect id="Rectangle_11872" data-name="Rectangle 11872" width="36.251" height="27.445" rx="2.732" transform="translate(13.476 21.658)" fill="#d8cbd3"/>
    <rect id="Rectangle_11873" data-name="Rectangle 11873" width="9.606" height="21.966" rx="3.583" transform="translate(9.05 4.985)" fill="#d8cbd3"/>
    <rect id="Rectangle_11874" data-name="Rectangle 11874" width="5.195" height="21.966" rx="1.938" transform="translate(9.049 4.985)" fill="#fff"/>
    <rect id="Rectangle_11875" data-name="Rectangle 11875" width="9.606" height="5.195" rx="1.938" transform="translate(9.05 4.985)" fill="#d6d7d9"/>
    <g id="Group_31330" data-name="Group 31330" transform="translate(0 0.001)">
      <path id="Path_19789" data-name="Path 19789" d="M397.962,105.469l-23.021-22.69a6.255,6.255,0,0,0-8.848,0l-23.021,22.69a6.553,6.553,0,0,0-1.478,7.1,6.337,6.337,0,0,0,5.9,4.058h46.042a6.34,6.34,0,0,0,5.9-4.058A6.553,6.553,0,0,0,397.962,105.469Z" transform="translate(-341.125 -80.946)" fill="#94402a"/>
      <path id="Path_19790" data-name="Path 19790" d="M367.065,83.818a3.923,3.923,0,0,1,5.486,0l13.334,12.994,9.056,8.826a3.985,3.985,0,0,1-2.743,6.843H347.418a3.985,3.985,0,0,1-2.743-6.843l9.056-8.826Z" transform="translate(-340.416 -80.414)" fill="#f16c4d"/>
      <path id="Path_19791" data-name="Path 19791" d="M346.962,112.208a3.047,3.047,0,0,1-2.645-1.919c-.54-1.789.244-2.386.211-3.06a.857.857,0,0,0-.743-.772l.228-.391s1.326.567,5.35-2.907,18.384-17.813,19.411-18.721a3.969,3.969,0,0,1,2.929-.906,3.6,3.6,0,0,1,1.7.959s-21.633,22.531-22.969,24.45A13.847,13.847,0,0,1,346.962,112.208Z" transform="translate(-340.318 -80.164)" fill="#fa8f41"/>
      <g id="Group_31329" data-name="Group 31329" transform="translate(9.074 3.625)">
        <path id="Path_19792" data-name="Path 19792" d="M368.074,84.571a3,3,0,0,1,4.171,0l10.138,9.8,9.382,9.068a1.6,1.6,0,0,1-1.111,2.747H349.665a1.6,1.6,0,0,1-1.111-2.747l9.382-9.068Z" transform="translate(-348.063 -83.727)" fill="#f58763"/>
        <path id="Path_19793" data-name="Path 19793" d="M366.209,83.753s-.877.205-.877.854,20.117,20.018,20.887,20.51,1.805.233,1.705-.446a1.922,1.922,0,0,0-.486-1.05,2.558,2.558,0,0,1,.965,1.6c.052.907.617,1.476,1.208,2.566s.052,4.337-2.749,4.358-2.461-5.752-2.461-5.752,1.176-.342-.339-1.847S365.769,85.956,364.588,85.54a2.628,2.628,0,0,0-2.27.434,5.488,5.488,0,0,1,1.5-1.783A4.068,4.068,0,0,1,366.209,83.753Z" transform="translate(-343.736 -83.727)" fill="#ffc667"/>
        <path id="Path_19794" data-name="Path 19794" d="M379.763,95.15l-10.138-9.8-.016-.016a2.011,2.011,0,0,0-2.76.086l-8.914,8.615-9.382,9.068a1.6,1.6,0,0,0,1.111,2.747h38.769a.967.967,0,0,0,.725-1.62l-.014-.013Z" transform="translate(-348.063 -83.393)" fill="#cd614b"/>
      </g>
    </g>
    <rect id="Rectangle_11876" data-name="Rectangle 11876" width="50.362" height="5.721" rx="2.134" transform="translate(4.21 26.23)" fill="#c36a4a"/>
    <path id="Path_19795" data-name="Path 19795" d="M389.276,100.9s-38.137.193-39.951,0a1.151,1.151,0,0,1-1.088-1.725,1.6,1.6,0,0,0,1.428,2.322h38.8a.977.977,0,0,0,.866-.532A.356.356,0,0,0,389.276,100.9Z" transform="translate(-339.019 -75.288)" fill="#f5793e"/>
    <g id="Group_31331" data-name="Group 31331" transform="translate(13.473 6.89)">
      <path id="Path_19796" data-name="Path 19796" d="M351.719,103.727H367.51l9.151-9.258-8.206-7.931-.013-.013a1.543,1.543,0,0,0-.461-.295L351.45,103.686A1.358,1.358,0,0,0,351.719,103.727Z" transform="translate(-351.45 -86.231)" fill="#f16c4d"/>
      <path id="Path_19797" data-name="Path 19797" d="M377.037,97.022l-3.307-3.2-6.961,7.6h6.14C374.177,100.073,375.622,98.534,377.037,97.022Z" transform="translate(-346.8 -83.925)" fill="#f16c4d"/>
    </g>
  </g>
</svg>
