<svg id="Button-bg-02" xmlns="http://www.w3.org/2000/svg" xmlns:xlink="http://www.w3.org/1999/xlink" width="86.063" height="86.063" viewBox="0 0 86.063 86.063">
  <defs>
    <radialGradient id="radial-gradient" cx="0.5" cy="0.5" r="0.626" gradientTransform="translate(0 0.02) scale(1 0.961)" gradientUnits="objectBoundingBox">
      <stop offset="0" stop-color="#00865b"/>
      <stop offset="1" stop-color="#00432e"/>
    </radialGradient>
    <filter id="Path_20546" x="0" y="0" width="86.063" height="86.063" filterUnits="userSpaceOnUse">
      <feOffset dy="4" input="SourceAlpha"/>
      <feGaussianBlur stdDeviation="4" result="blur"/>
      <feFlood flood-opacity="0.251" result="color"/>
      <feComposite operator="out" in="SourceGraphic" in2="blur"/>
      <feComposite operator="in" in="color"/>
      <feComposite operator="in" in2="SourceGraphic"/>
    </filter>
  </defs>
  <g id="Instagram-btn">
    <g data-type="innerShadowGroup">
      <path id="Path_20546-2" data-name="Path 20546" d="M15.368,0H70.694A15.368,15.368,0,0,1,86.063,15.368V70.694A15.368,15.368,0,0,1,70.694,86.063H15.368A15.368,15.368,0,0,1,0,70.694V15.368A15.368,15.368,0,0,1,15.368,0Z" fill="url(#radial-gradient)"/>
      <g transform="matrix(1, 0, 0, 1, 0, 0)" filter="url(#Path_20546)">
        <path id="Path_20546-3" data-name="Path 20546" d="M15.368,0H70.694A15.368,15.368,0,0,1,86.063,15.368V70.694A15.368,15.368,0,0,1,70.694,86.063H15.368A15.368,15.368,0,0,1,0,70.694V15.368A15.368,15.368,0,0,1,15.368,0Z" fill="#fff"/>
      </g>
    </g>
  </g>
  <path id="Path_19771_-_Outline" data-name="Path 19771 - Outline" d="M15.368,3.074A12.295,12.295,0,0,0,3.074,15.368V70.694A12.295,12.295,0,0,0,15.368,82.989H70.694A12.295,12.295,0,0,0,82.989,70.694V15.368A12.295,12.295,0,0,0,70.694,3.074H15.368m0-3.074H70.694A15.368,15.368,0,0,1,86.063,15.368V70.694A15.368,15.368,0,0,1,70.694,86.063H15.368A15.368,15.368,0,0,1,0,70.694V15.368A15.368,15.368,0,0,1,15.368,0Z" fill="#6bbfa3"/>
  <path id="Icon_awesome-instagram" data-name="Icon awesome-instagram" d="M19.071,11.528a9.777,9.777,0,1,0,9.777,9.777A9.762,9.762,0,0,0,19.071,11.528Zm0,16.134a6.357,6.357,0,1,1,6.357-6.357A6.368,6.368,0,0,1,19.071,27.662ZM31.529,11.128a2.281,2.281,0,1,1-2.281-2.281A2.275,2.275,0,0,1,31.529,11.128ZM38,13.443c-.145-3.055-.842-5.761-3.08-7.99s-4.935-2.927-7.99-3.08c-3.149-.179-12.585-.179-15.734,0-3.046.145-5.752.842-7.99,3.072S.282,10.379.129,13.434C-.05,16.583-.05,26.02.129,29.168c.145,3.055.842,5.761,3.08,7.99s4.935,2.927,7.99,3.08c3.149.179,12.585.179,15.734,0,3.055-.145,5.761-.842,7.99-3.08s2.927-4.935,3.08-7.99c.179-3.149.179-12.577,0-15.725Zm-4.068,19.1a6.435,6.435,0,0,1-3.625,3.625c-2.51,1-8.467.766-11.241.766s-8.739.221-11.241-.766A6.436,6.436,0,0,1,4.2,32.546c-1-2.51-.766-8.467-.766-11.241s-.221-8.739.766-11.241A6.436,6.436,0,0,1,7.83,6.439c2.51-1,8.467-.766,11.241-.766s8.739-.221,11.241.766a6.435,6.435,0,0,1,3.625,3.625c1,2.51.766,8.467.766,11.241S34.932,30.045,33.937,32.546Z" transform="translate(23.965 21.725)" fill="#fff"/>
</svg>
