<svg id="Logo" xmlns="http://www.w3.org/2000/svg" width="378.424" height="115.171" viewBox="0 0 378.424 115.171">
  <g id="Group_714" data-name="Group 714" transform="translate(0 67.729)">
    <path id="Path_2007" data-name="Path 2007" d="M248.42,373.831l5.143,10.352,5.01-10.352a3.71,3.71,0,0,1,3.583-2.189,3.22,3.22,0,0,1,3.517,3.285V394.37a3.161,3.161,0,0,1-3.152,3.285,3.108,3.108,0,0,1-3.086-3.285v-3.683l.166-7.466-2.555,5.409c-1,2.09-1.859,2.82-3.683,2.82s-2.621-.73-3.583-2.82l-2.356-5.077.133,6.8v4.015a3.161,3.161,0,0,1-3.152,3.285,3.108,3.108,0,0,1-3.086-3.285V374.927a3.194,3.194,0,0,1,3.484-3.285A3.757,3.757,0,0,1,248.42,373.831Z" transform="translate(-241.319 -371.642)" fill="#fff"/>
    <path id="Path_2008" data-name="Path 2008" d="M338.271,394.37a3.285,3.285,0,0,1-6.57,0V374.927a3.285,3.285,0,0,1,6.57,0Z" transform="translate(-302.901 -371.642)" fill="#fff"/>
    <path id="Path_2009" data-name="Path 2009" d="M364.906,391.223a2.276,2.276,0,0,1,1.195-.3c1.626,0,2.488,1.195,5.84,1.195,2.953,0,3.55-.929,3.55-2.224,0-1.493-.83-1.991-2.721-2.256l-3.55-.5c-4.413-.631-6.072-3.352-6.072-7.068,0-6.3,4.811-8.328,9.888-8.328,1.825,0,5.043.265,6.9,1.559a2.842,2.842,0,0,1,1.36,2.422,2.566,2.566,0,0,1-2.555,2.687c-1.493,0-2.323-1.195-5.408-1.195-2.323,0-3.65.664-3.65,2.224,0,1.327,1,2.057,2.555,2.256l3.185.431c5.11.7,6.636,4.114,6.636,7.465,0,6.072-5.077,8.1-10.22,8.1-1.858,0-5.01-.265-6.868-1.559a3,3,0,0,1-1.427-2.522A2.658,2.658,0,0,1,364.906,391.223Z" transform="translate(-324.327 -371.713)" fill="#fff"/>
    <path id="Path_2010" data-name="Path 2010" d="M431.546,391.223a2.276,2.276,0,0,1,1.194-.3c1.626,0,2.489,1.195,5.84,1.195,2.953,0,3.55-.929,3.55-2.224,0-1.493-.829-1.991-2.721-2.256l-3.55-.5c-4.413-.631-6.072-3.352-6.072-7.068,0-6.3,4.811-8.328,9.888-8.328,1.825,0,5.043.265,6.9,1.559a2.842,2.842,0,0,1,1.36,2.422,2.566,2.566,0,0,1-2.555,2.687c-1.493,0-2.323-1.195-5.409-1.195-2.323,0-3.649.664-3.649,2.224,0,1.327,1,2.057,2.555,2.256l3.185.431c5.109.7,6.636,4.114,6.636,7.465,0,6.072-5.077,8.1-10.22,8.1-1.858,0-5.01-.265-6.868-1.559a3,3,0,0,1-1.427-2.522A2.658,2.658,0,0,1,431.546,391.223Z" transform="translate(-369.732 -371.713)" fill="#fff"/>
    <path id="Path_2011" data-name="Path 2011" d="M506.123,394.37a3.285,3.285,0,0,1-6.57,0V374.927a3.285,3.285,0,0,1,6.57,0Z" transform="translate(-417.268 -371.642)" fill="#fff"/>
    <path id="Path_2012" data-name="Path 2012" d="M531.729,382.89c0-7.531,4.546-11.248,10.684-11.248s10.717,3.749,10.717,11.248v3.716c0,7.5-4.579,11.049-10.717,11.049s-10.684-3.517-10.684-11.049Zm6.569,3.949c0,2.688.564,5.508,4.081,5.508,3.584,0,4.181-2.787,4.181-5.508v-4.181c0-2.92-.4-5.707-4.181-5.707-3.384,0-4.081,2.787-4.081,5.707Z" transform="translate(-439.191 -371.642)" fill="#fff"/>
    <path id="Path_2013" data-name="Path 2013" d="M616.485,382.425l.066,6.138v5.807a3.108,3.108,0,0,1-3.086,3.285,3.056,3.056,0,0,1-3.02-3.285V374.927a3.155,3.155,0,0,1,3.418-3.285,4.114,4.114,0,0,1,3.65,2.189l8.328,12.708-.1-6.338v-5.276a3.056,3.056,0,0,1,3.019-3.285,3.108,3.108,0,0,1,3.086,3.285V394.37a3.213,3.213,0,0,1-3.484,3.285,4.012,4.012,0,0,1-3.584-2.19Z" transform="translate(-492.825 -371.642)" fill="#fff"/>
    <path id="Path_2014" data-name="Path 2014" d="M718.465,378.441v16.922a3.285,3.285,0,0,1-6.57,0V378.441h-4.214a2.677,2.677,0,0,1-2.688-2.688,2.648,2.648,0,0,1,2.688-2.655h15.1a2.649,2.649,0,0,1,2.688,2.655,2.677,2.677,0,0,1-2.688,2.688Z" transform="translate(-557.245 -372.635)" fill="#fff"/>
    <path id="Path_2015" data-name="Path 2015" d="M772.157,382.89c0-7.531,4.545-11.248,10.684-11.248s10.717,3.749,10.717,11.248v3.716c0,7.5-4.579,11.049-10.717,11.049s-10.684-3.517-10.684-11.049Zm6.569,3.949c0,2.688.564,5.508,4.082,5.508,3.583,0,4.181-2.787,4.181-5.508v-4.181c0-2.92-.4-5.707-4.181-5.707-3.385,0-4.082,2.787-4.082,5.707Z" transform="translate(-603.008 -371.642)" fill="#fff"/>
    <path id="Path_2016" data-name="Path 2016" d="M880.982,378.441h-8.66a2.677,2.677,0,0,1-2.688-2.688,2.649,2.649,0,0,1,2.688-2.655h13.869c2.024,0,3.119,1.161,3.119,2.655a5.544,5.544,0,0,1-1.526,3.417l-10.319,13.637h9.224a2.648,2.648,0,0,1,2.688,2.654,2.677,2.677,0,0,1-2.688,2.688H872.422c-2.024,0-3.119-1.161-3.119-2.655a5.857,5.857,0,0,1,1.527-3.417Z" transform="translate(-669.198 -372.635)" fill="#fff"/>
    <path id="Path_2017" data-name="Path 2017" d="M948.763,378.441v4.479H955.9a2.649,2.649,0,0,1,2.688,2.654,2.677,2.677,0,0,1-2.688,2.687h-7.134v4.546h8.362a2.648,2.648,0,0,1,2.687,2.654,2.676,2.676,0,0,1-2.687,2.688H945.478a3.271,3.271,0,0,1-3.285-3.285V376.384a3.271,3.271,0,0,1,3.285-3.285h11.646a2.648,2.648,0,0,1,2.687,2.655,2.677,2.677,0,0,1-2.687,2.688Z" transform="translate(-718.862 -372.635)" fill="#fff"/>
    <path id="Path_2018" data-name="Path 2018" d="M1024.509,388.561l2.19,5.01a4.516,4.516,0,0,1,.531,1.792,3.271,3.271,0,0,1-3.285,3.285,3.453,3.453,0,0,1-3.185-2.356l-2.422-6.171h-3.351v5.242a3.285,3.285,0,0,1-6.57,0v-18.98a3.271,3.271,0,0,1,3.285-3.285h7.632c5.707,0,8.56,4.015,8.56,8.361A8.7,8.7,0,0,1,1024.509,388.561Zm-9.523-10.186v6.536h2.223c2.721,0,4.114-.83,4.114-3.318,0-2.522-1.46-3.218-4.479-3.218Z" transform="translate(-763.984 -372.635)" fill="#fff"/>
    <path id="Path_2019" data-name="Path 2019" d="M1078.077,382.89c0-7.531,4.546-11.248,10.684-11.248s10.717,3.749,10.717,11.248v3.716c0,7.5-4.579,11.049-10.717,11.049s-10.684-3.517-10.684-11.049Zm6.569,3.949c0,2.688.564,5.508,4.082,5.508,3.583,0,4.18-2.787,4.18-5.508v-4.181c0-2.92-.4-5.707-4.18-5.707-3.385,0-4.082,2.787-4.082,5.707Z" transform="translate(-811.447 -371.642)" fill="#fff"/>
  </g>
  <g id="Group_715" data-name="Group 715" transform="translate(300.991)">
    <path id="Path_2020" data-name="Path 2020" d="M1296.529,434.434a1.858,1.858,0,0,0-1.859,1.858v23.717a1.859,1.859,0,0,0,3.717,0V436.292A1.858,1.858,0,0,0,1296.529,434.434Z" transform="translate(-1260.015 -346.696)" fill="#fff"/>
    <path id="Path_2021" data-name="Path 2021" d="M1312.7,434.333a1.825,1.825,0,1,0-3.51,1l6.435,22.519a1.825,1.825,0,0,0,3.51-1Z" transform="translate(-1269.86 -345.725)" fill="#fff"/>
    <path id="Path_2022" data-name="Path 2022" d="M1325.536,428.764a1.792,1.792,0,1,0-3.057,1.871l12.07,19.724a1.792,1.792,0,0,0,3.057-1.871Z" transform="translate(-1278.783 -342.249)" fill="#fff"/>
    <path id="Path_2023" data-name="Path 2023" d="M1336.464,420.015a1.759,1.759,0,1,0-2.416,2.557l16.6,15.674a1.759,1.759,0,0,0,2.415-2.557Z" transform="translate(-1286.471 -336.544)" fill="#fff"/>
    <path id="Path_2024" data-name="Path 2024" d="M1364.653,419.261l-19.866-10.629a1.726,1.726,0,0,0-1.628,3.043l19.866,10.629a1.726,1.726,0,0,0,1.628-3.043Z" transform="translate(-1292.432 -328.976)" fill="#fff"/>
    <path id="Path_2025" data-name="Path 2025" d="M1371.565,400.028l-21.7-4.824a1.693,1.693,0,1,0-.734,3.3l21.7,4.824a1.692,1.692,0,1,0,.734-3.3Z" transform="translate(-1296.216 -319.939)" fill="#fff"/>
    <path id="Path_2026" data-name="Path 2026" d="M1373.251,378.277h-21.938a1.659,1.659,0,1,0,0,3.319h21.938a1.659,1.659,0,1,0,0-3.319Z" transform="translate(-1297.479 -308.433)" fill="#fff"/>
    <path id="Path_2027" data-name="Path 2027" d="M1373.491,354.266H1351.85a1.626,1.626,0,1,0,0,3.252h21.641a1.626,1.626,0,1,0,0-3.252Z" transform="translate(-1297.867 -292.073)" fill="#fff"/>
    <path id="Path_2028" data-name="Path 2028" d="M1373.731,330.254h-21.345a1.593,1.593,0,1,0,0,3.186h21.345a1.593,1.593,0,0,0,0-3.186Z" transform="translate(-1298.255 -275.713)" fill="#fff"/>
    <path id="Path_2029" data-name="Path 2029" d="M1373.971,306.243h-21.049a1.56,1.56,0,1,0,0,3.12h21.049a1.56,1.56,0,1,0,0-3.12Z" transform="translate(-1298.643 -259.353)" fill="#fff"/>
    <path id="Path_2030" data-name="Path 2030" d="M1353.459,282.231a1.527,1.527,0,1,0,0,3.053h20.752a1.527,1.527,0,0,0,0-3.053Z" transform="translate(-1299.031 -242.992)" fill="#fff"/>
    <path id="Path_2031" data-name="Path 2031" d="M1351.186,257.066a1.494,1.494,0,0,0,1.782,1.134l19.969-4.438a1.493,1.493,0,0,0-.648-2.916l-19.968,4.438A1.494,1.494,0,0,0,1351.186,257.066Z" transform="translate(-1298.498 -221.583)" fill="#fff"/>
    <path id="Path_2032" data-name="Path 2032" d="M1346.535,232.137a1.46,1.46,0,0,0,1.976.6l17.775-9.51a1.46,1.46,0,1,0-1.378-2.575l-17.775,9.51A1.461,1.461,0,0,0,1346.535,232.137Z" transform="translate(-1295.236 -200.916)" fill="#fff"/>
    <path id="Path_2033" data-name="Path 2033" d="M1338.311,211.023a1.427,1.427,0,0,0,2.017.058l14.44-13.639a1.427,1.427,0,0,0-1.96-2.075l-14.44,13.639A1.427,1.427,0,0,0,1338.311,211.023Z" transform="translate(-1289.485 -183.542)" fill="#fff"/>
    <path id="Path_2034" data-name="Path 2034" d="M1327.045,194.734a1.4,1.4,0,0,0,1.917-.461l10.213-16.689a1.394,1.394,0,0,0-2.378-1.455l-10.213,16.689A1.394,1.394,0,0,0,1327.045,194.734Z" transform="translate(-1281.62 -170.245)" fill="#fff"/>
    <path id="Path_2035" data-name="Path 2035" d="M1313.354,184.286a1.361,1.361,0,0,0,1.682-.935l5.295-18.528a1.361,1.361,0,0,0-2.617-.748l-5.295,18.528A1.361,1.361,0,0,0,1313.354,184.286Z" transform="translate(-1272.073 -161.814)" fill="#fff"/>
    <path id="Path_2036" data-name="Path 2036" d="M1297.665,180.716a1.328,1.328,0,0,0,1.327-1.328V160.415a1.328,1.328,0,0,0-2.655,0v18.973A1.328,1.328,0,0,0,1297.665,180.716Z" transform="translate(-1261.151 -159.088)" fill="#fff"/>
    <path id="Path_2037" data-name="Path 2037" d="M1265.82,457.067a.263.263,0,0,0-.336.168l-2.852,8.556a.266.266,0,0,0,.168.336.259.259,0,0,0,.084.014.266.266,0,0,0,.252-.181l2.852-8.556A.265.265,0,0,0,1265.82,457.067Z" transform="translate(-1238.177 -362.107)" fill="#fff"/>
    <path id="Path_2038" data-name="Path 2038" d="M1242.146,445.593l-5.313,7.585a4.529,4.529,0,0,0-.283.462.31.31,0,0,0,.1.4.342.342,0,0,0,.476-.08l5.313-7.585a4.485,4.485,0,0,0,.283-.462.309.309,0,0,0-.1-.4A.339.339,0,0,0,1242.146,445.593Z" transform="translate(-1220.391 -354.201)" fill="#fff"/>
    <path id="Path_2039" data-name="Path 2039" d="M1223.86,430.429a.357.357,0,0,0-.006-.445.415.415,0,0,0-.585-.071l-7.81,6.257a2.569,2.569,0,0,0-.409.414.358.358,0,0,0,.006.445.4.4,0,0,0,.1.091.416.416,0,0,0,.486-.021l7.81-6.257A2.583,2.583,0,0,0,1223.86,430.429Z" transform="translate(-1205.715 -343.554)" fill="#fff"/>
    <path id="Path_2040" data-name="Path 2040" d="M1210.63,412.085a.411.411,0,0,0,.108-.47.491.491,0,0,0-.64-.277l-9.955,4.065a1.946,1.946,0,0,0-.531.326.414.414,0,0,0-.108.47.5.5,0,0,0,.082.138.493.493,0,0,0,.557.139l9.955-4.065A1.935,1.935,0,0,0,1210.63,412.085Z" transform="translate(-1195.152 -330.936)" fill="#fff"/>
    <path id="Path_2041" data-name="Path 2041" d="M1204.29,391.877a.472.472,0,0,0,.24-.461.567.567,0,0,0-.613-.521l-11.451,1.055a1.653,1.653,0,0,0-.637.194.474.474,0,0,0-.24.461.562.562,0,0,0,.045.18.568.568,0,0,0,.568.341l11.451-1.055A1.645,1.645,0,0,0,1204.29,391.877Z" transform="translate(-1189.78 -317.03)" fill="#fff"/>
    <path id="Path_2042" data-name="Path 2042" d="M1202.876,367.728a1.486,1.486,0,0,0,.684-.185.537.537,0,0,0,.274-.486.643.643,0,0,0-.654-.635l-12.243.3a1.486,1.486,0,0,0-.684.185.54.54,0,0,0-.274.486.663.663,0,0,0,.037.207.645.645,0,0,0,.617.428Z" transform="translate(-1188.684 -300.356)" fill="#fff"/>
    <path id="Path_2043" data-name="Path 2043" d="M1202.344,342.516a1.394,1.394,0,0,0,.721-.217.606.606,0,0,0,.278-.527.719.719,0,0,0-.728-.712l-12.991.263a1.4,1.4,0,0,0-.721.217.611.611,0,0,0-.278.527.735.735,0,0,0,.041.232.721.721,0,0,0,.688.481Z" transform="translate(-1187.761 -283.075)" fill="#fff"/>
    <path id="Path_2044" data-name="Path 2044" d="M1201.812,317.3a1.341,1.341,0,0,0,.757-.248.682.682,0,0,0,.283-.569.8.8,0,0,0-.8-.789l-13.738.23a1.336,1.336,0,0,0-.757.248.684.684,0,0,0-.283.569.8.8,0,0,0,.8.789Z" transform="translate(-1186.838 -265.795)" fill="#fff"/>
    <path id="Path_2045" data-name="Path 2045" d="M1201.278,292.092a1.308,1.308,0,0,0,.794-.28.761.761,0,0,0,.287-.61.871.871,0,0,0-.878-.866l-14.486.2a1.306,1.306,0,0,0-.794.28.764.764,0,0,0-.288.61.9.9,0,0,0,.048.281.873.873,0,0,0,.83.585Z" transform="translate(-1185.914 -248.514)" fill="#fff"/>
    <path id="Path_2046" data-name="Path 2046" d="M1186.723,263.194l15.071,2.227a1.29,1.29,0,0,0,.869-.177.845.845,0,0,0,.391-.6.948.948,0,0,0-.793-1.081l-15.071-2.227a1.292,1.292,0,0,0-.869.177.847.847,0,0,0-.391.6.964.964,0,0,0,0,.31A.949.949,0,0,0,1186.723,263.194Z" transform="translate(-1185.917 -228.748)" fill="#fff"/>
    <path id="Path_2047" data-name="Path 2047" d="M1194.706,231.859l14.49,6.744a1.285,1.285,0,0,0,.93.062.932.932,0,0,0,.565-.5,1.024,1.024,0,0,0-.49-1.363l-14.49-6.744a1.286,1.286,0,0,0-.93-.063.936.936,0,0,0-.565.5,1.035,1.035,0,0,0-.092.323A1.024,1.024,0,0,0,1194.706,231.859Z" transform="translate(-1191.503 -207.361)" fill="#fff"/>
    <path id="Path_2048" data-name="Path 2048" d="M1212.368,202.745a1.287,1.287,0,0,0-.925-.316,1.023,1.023,0,0,0-.711.352,1.1,1.1,0,0,0,.1,1.552l12.621,10.982a1.288,1.288,0,0,0,.925.316,1.023,1.023,0,0,0,.711-.352,1.1,1.1,0,0,0-.1-1.552Z" transform="translate(-1202.638 -188.614)" fill="#fff"/>
    <path id="Path_2049" data-name="Path 2049" d="M1243.469,196.843a1.3,1.3,0,0,0,.851.57,1.119,1.119,0,0,0,.817-.163,1.176,1.176,0,0,0,.349-1.626l-9.526-14.654a1.294,1.294,0,0,0-.851-.57,1.119,1.119,0,0,0-.817.163,1.174,1.174,0,0,0-.349,1.626Z" transform="translate(-1218.51 -173.596)" fill="#fff"/>
    <path id="Path_2050" data-name="Path 2050" d="M1265.311,166.293a1.309,1.309,0,0,0-.7-.81,1.219,1.219,0,0,0-.871-.063,1.251,1.251,0,0,0-.84,1.558l5.251,17.453a1.309,1.309,0,0,0,.7.81,1.218,1.218,0,0,0,.872.063,1.252,1.252,0,0,0,.839-1.558Z" transform="translate(-1238.333 -163.366)" fill="#fff"/>
  </g>
  <g id="Group_716" data-name="Group 716" transform="translate(0 5.609)">
    <path id="Path_2051" data-name="Path 2051" d="M262.479,277.425l-.725.128a5.476,5.476,0,0,1-4.05-1.45,19.517,19.517,0,0,1-2,6.161,11.826,11.826,0,0,1-3.667,4.242,8.425,8.425,0,0,1-4.9,1.535,7.331,7.331,0,0,1-4.008-.938,3.8,3.8,0,0,1-1.407-1.556,4.148,4.148,0,0,1-.384-2.153,3.477,3.477,0,0,1,.917-2.43,2.839,2.839,0,0,1,2.11-.9,2.01,2.01,0,0,1,.469.043,6.718,6.718,0,0,1,.725.064,8.586,8.586,0,0,0,1.066.064,4.966,4.966,0,0,0,3.048-1,6.638,6.638,0,0,0,2.111-2.814,10.689,10.689,0,0,0,.768-4.2,38.131,38.131,0,0,0-.427-5.543,3.575,3.575,0,0,1-.042-.64,3.3,3.3,0,0,1,.7-2.174,2.426,2.426,0,0,1,1.983-.853,2.375,2.375,0,0,1,1.79.661,4.184,4.184,0,0,1,.938,2.068q.214,1.322.257,1.961h.042a1.839,1.839,0,0,0,.959,1.556,6.6,6.6,0,0,0,3.006.49l.725.128Z" transform="translate(-241.318 -235.507)" fill="#fff"/>
    <path id="Path_2052" data-name="Path 2052" d="M326.2,240.319l-.768.128q-6.949,0-10.872-2.089-3.923,2.09-10.617,2.089l-.768-.128v-7.547l.768-.128q2.729,0,4.648-.128a7.264,7.264,0,0,1-2.132-5.628,9.834,9.834,0,0,1,2.2-6.8,7.688,7.688,0,0,1,6.034-2.452,7.771,7.771,0,0,1,6.075,2.431,9.814,9.814,0,0,1,2.2,6.822,7.347,7.347,0,0,1-2.132,5.628q1.919.128,4.6.128l.768.128ZM311.749,229.83a7.649,7.649,0,0,0,2.9,1.364,8.173,8.173,0,0,0,2.964-1.343,2.387,2.387,0,0,0,.874-1.9q0-3.113-3.795-3.113t-3.795,3.113A2.43,2.43,0,0,0,311.749,229.83Zm.043-18.377a2.758,2.758,0,0,1,.874-2.047,2.814,2.814,0,0,1,2.026-.852,2.862,2.862,0,0,1,2.068.852,2.759,2.759,0,0,1,.874,2.047,2.862,2.862,0,0,1-.853,2.068,2.931,2.931,0,0,1-4.989-2.068Z" transform="translate(-283.467 -198.401)" fill="#fff"/>
    <path id="Path_2053" data-name="Path 2053" d="M371.611,284.155h13.217l.726.128v7.547l-.726.128H371.611l-.725-.128v-7.547Z" transform="translate(-329.6 -249.912)" fill="#fff"/>
    <path id="Path_2054" data-name="Path 2054" d="M413.092,284.155h13.218l.725.128v7.547l-.725.128H413.092l-.725-.128v-7.547Z" transform="translate(-357.863 -249.912)" fill="#fff"/>
    <path id="Path_2055" data-name="Path 2055" d="M496.359,262.017l-.725.128a9.913,9.913,0,0,1-4.008-.618,3.3,3.3,0,0,1-1.79-1.9q-2.73,2.516-7.8,2.516H467.663q-4.9,0-6.31-3.368-1.406,3.368-6.779,3.368l-.725-.171v-7.5l.725-.128a11.684,11.684,0,0,0,2.707-.234,1.954,1.954,0,0,0,1.279-.853,3.532,3.532,0,0,0,.363-1.769v-1.748a2.86,2.86,0,0,1,.767-2.047,2.585,2.585,0,0,1,1.962-.81,2.533,2.533,0,0,1,1.919.81,2.8,2.8,0,0,1,.768,2v1.62a4.469,4.469,0,0,0,.342,1.983,1.862,1.862,0,0,0,1.194.916,53.369,53.369,0,0,1,5.692-8.122,18.41,18.41,0,0,1,5.329-4.349,12.559,12.559,0,0,1,5.734-1.343,9.553,9.553,0,0,1,5.309,1.449,9.41,9.41,0,0,1,3.453,4.115,14.828,14.828,0,0,1,1.215,6.2,13.24,13.24,0,0,1-.128,1.876,13.446,13.446,0,0,0,3.155.3l.725.128Zm-8.57-10.191a3.815,3.815,0,0,0-1.428-2.984,5.9,5.9,0,0,0-3.987-1.237,12.589,12.589,0,0,0-6.4,1.62,18.035,18.035,0,0,0-5.372,5.116h11.683a11.459,11.459,0,0,0,4.285-.554A1.981,1.981,0,0,0,487.789,251.827Z" transform="translate(-386.127 -220.1)" fill="#fff"/>
    <path id="Path_2056" data-name="Path 2056" d="M583.432,240.447l-.725-.128v-7.547l.725-.128a7.615,7.615,0,0,0,2.344-.277,1.808,1.808,0,0,0,1.131-1,5.372,5.372,0,0,0,.32-2.089V211.922a3.7,3.7,0,0,1,.767-2.452,2.679,2.679,0,0,1,2.175-.916,2.629,2.629,0,0,1,2.132.916,3.7,3.7,0,0,1,.767,2.452v16.2q0,6.609-2.366,9.444T583.432,240.447Z" transform="translate(-473.925 -198.401)" fill="#fff"/>
    <path id="Path_2057" data-name="Path 2057" d="M636.064,239.573a2.754,2.754,0,0,1-2.153.874,2.687,2.687,0,0,1-2.132-.874,3.392,3.392,0,0,1-.768-2.324v-25.5a3.391,3.391,0,0,1,.768-2.324,2.686,2.686,0,0,1,2.132-.874,2.753,2.753,0,0,1,2.153.874,3.336,3.336,0,0,1,.789,2.324v25.5A3.337,3.337,0,0,1,636.064,239.573Z" transform="translate(-506.837 -198.401)" fill="#fff"/>
    <path id="Path_2058" data-name="Path 2058" d="M708.051,267.943l-.725.128h-3.07a14.31,14.31,0,0,1-3.965,7.8,10.419,10.419,0,0,1-7.5,2.857,18.77,18.77,0,0,1-2.9-.214,8.811,8.811,0,0,1-2.217-.6,3.834,3.834,0,0,1-2.6-3.752,3.551,3.551,0,0,1,.81-2.473,2.737,2.737,0,0,1,2.132-.9,5.112,5.112,0,0,1,.725.085,19.55,19.55,0,0,0,3.88.469,11.139,11.139,0,0,0,4.989-.98,5.1,5.1,0,0,0,2.644-2.814h-5.5q-3.794,0-5.628-2.047a8.329,8.329,0,0,1-1.833-5.756,13.734,13.734,0,0,1,1-5.287,8.959,8.959,0,0,1,3.006-3.9,7.987,7.987,0,0,1,4.86-1.471,7.021,7.021,0,0,1,6.161,3.048,15.436,15.436,0,0,1,2.367,8.123h2.643l.725.256Zm-12.45-7.462h4.648v-.213a4.213,4.213,0,0,0-1.131-2.942,4.423,4.423,0,0,0-3.432-1.236,5.057,5.057,0,0,0-3.027.831,2.475,2.475,0,0,0-1.151,2.068,1.173,1.173,0,0,0,.853,1.173A10.785,10.785,0,0,0,695.6,260.481Z" transform="translate(-543.67 -226.025)" fill="#fff"/>
    <path id="Path_2059" data-name="Path 2059" d="M785.3,265.391l-.725.128a13.363,13.363,0,0,1-4.69-.661,4.754,4.754,0,0,1-2.494-2,8.759,8.759,0,0,1-1-3.6q-1.705.767-2.558,1.194-4.051,1.834-5.117,2.26a33.755,33.755,0,0,1-7.547,2.26,48.984,48.984,0,0,1-7.718.554l-.767-.128-.043-7.547.81-.128a78.228,78.228,0,0,0,8.229-.341,58.551,58.551,0,0,0,6.311-1.066q2.174-.469,5.671-1.578l-1.194-.426q-3.113-1.065-5.116-1.577a17.727,17.727,0,0,0-4.392-.512,12.5,12.5,0,0,0-4.136.682,3.681,3.681,0,0,1-1.151.213,2.324,2.324,0,0,1-1.685-.64,2.627,2.627,0,0,1-.7-1.876,3.9,3.9,0,0,1,1.961-3.667,8.262,8.262,0,0,1,2.495-1.151,11.05,11.05,0,0,1,3.091-.426,15.843,15.843,0,0,1,4.285.533q1.9.533,4.924,1.726,2.175.853,3.688,1.386a30.718,30.718,0,0,0,3.39.959,4.336,4.336,0,0,1,2.345,1.343,3.6,3.6,0,0,1,.811,2.409,4.719,4.719,0,0,1-.427,2.153,3.516,3.516,0,0,1-1.321,1.385,12.489,12.489,0,0,0,4.051.469l.725.128Z" transform="translate(-589.712 -223.473)" fill="#fff"/>
    <path id="Path_2060" data-name="Path 2060" d="M850.591,241.251l.725-.128a5.493,5.493,0,0,0,3.6-.916,3.756,3.756,0,0,0,1.044-2.963,14.732,14.732,0,0,0-.213-2.516q-.213-1.236-.256-1.493a3.2,3.2,0,0,1-.042-.6,2.436,2.436,0,0,1,.7-1.833,2.5,2.5,0,0,1,1.812-.682q2.26,0,2.942,3.027a20.828,20.828,0,0,1,.341,4.093,14.905,14.905,0,0,1-1.173,6.1,9.3,9.3,0,0,1-3.411,4.115,9.522,9.522,0,0,1-5.351,1.471l-.725-.128ZM854.9,223.9a2.758,2.758,0,0,1,.874-2.047A2.813,2.813,0,0,1,857.8,221a2.862,2.862,0,0,1,2.068.852,2.757,2.757,0,0,1,.874,2.047,2.863,2.863,0,0,1-.852,2.068,2.807,2.807,0,0,1-2.089.874,2.778,2.778,0,0,1-2.025-.874A2.827,2.827,0,0,1,854.9,223.9Z" transform="translate(-656.449 -206.88)" fill="#fff"/>
    <path id="Path_2061" data-name="Path 2061" d="M916.827,178.573a1.217,1.217,0,0,1,.447-1,2.354,2.354,0,0,1,1.258-.448l7.206-.426q1.833-.086,1.833,1.364a1.2,1.2,0,0,1-.469,1,2.417,2.417,0,0,1-1.236.448l-7.164.469a2.121,2.121,0,0,1-1.385-.32A1.264,1.264,0,0,1,916.827,178.573Zm0,4.392a1.217,1.217,0,0,1,.447-1,2.36,2.36,0,0,1,1.258-.448l7.206-.426q1.833-.085,1.833,1.364a1.2,1.2,0,0,1-.469,1,2.42,2.42,0,0,1-1.236.447l-7.164.469a2.121,2.121,0,0,1-1.385-.32A1.264,1.264,0,0,1,916.827,182.964Z" transform="translate(-701.579 -176.692)" fill="#fff"/>
    <path id="Path_2062" data-name="Path 2062" d="M930.261,230.64a2.4,2.4,0,0,0,1.044,1.471,4.765,4.765,0,0,0,2.559.533l.725.128v7.547l-.725.128q-5.2,0-7.44-2.75t-2.239-8.335V211.752a3.392,3.392,0,0,1,.768-2.324,2.687,2.687,0,0,1,2.132-.874,2.753,2.753,0,0,1,2.153.874,3.338,3.338,0,0,1,.789,2.324v16.288A11.259,11.259,0,0,0,930.261,230.64Z" transform="translate(-706.592 -198.401)" fill="#fff"/>
    <path id="Path_2063" data-name="Path 2063" d="M953.011,284.155h13.218l.725.128v7.547l-.725.128H953.011l-.725-.128v-7.547Z" transform="translate(-725.739 -249.912)" fill="#fff"/>
    <path id="Path_2064" data-name="Path 2064" d="M1019.349,262.29l-.725.128h-1.066a32.394,32.394,0,0,1-6.716-.533,10.209,10.209,0,0,1-4.412-2.281,12.416,12.416,0,0,1-4.882,2.238,30.1,30.1,0,0,1-6.289.576h-.767l-.725-.128v-7.547l.725-.128h1.151q3.453,0,4.733-.042-1.023-1.066-2.516-2.9a6.438,6.438,0,0,1-1.449-4.093,11.882,11.882,0,0,1,.213-2.047,4.753,4.753,0,0,1,1.428-2.643,5.933,5.933,0,0,1,2.836-1.45,31.969,31.969,0,0,1,6.822-.64q4.519,0,6.63,1.706t2.11,5.329a9.277,9.277,0,0,1-.661,3.646,8.9,8.9,0,0,1-2.495,3.134h5.33l.725.128Zm-12.45-14.539a18.841,18.841,0,0,0-5.415.6,53.474,53.474,0,0,0,5.8,5.458q4.733-1.962,4.733-4.093a1.56,1.56,0,0,0-1.151-1.514A12.187,12.187,0,0,0,1006.9,247.751Z" transform="translate(-754.002 -220.373)" fill="#fff"/>
    <path id="Path_2065" data-name="Path 2065" d="M1091.1,253.049a12.979,12.979,0,0,1,1,5.266q0,4.477-2.324,6.929t-6.758,2.452q-5.159,0-6.779-3.709a6.353,6.353,0,0,1-2.388,2.686,6.96,6.96,0,0,1-3.581.853l-.768-.128V259.85l.768-.128a4.27,4.27,0,0,0,2.345-.554,5.976,5.976,0,0,0,1.748-2.431l.853-1.748a16.972,16.972,0,0,1,3.433-4.711,8.074,8.074,0,0,1,9.593-.746A7.931,7.931,0,0,1,1091.1,253.049Zm-3.688,5.308a2.876,2.876,0,0,0-1.065-2.068,4.308,4.308,0,0,0-2.857-.832,6.274,6.274,0,0,0-3.326.832,4.921,4.921,0,0,0-2,2.324q.938,1.279,4.818,1.279a11.217,11.217,0,0,0,3.475-.362A1.24,1.24,0,0,0,1087.409,258.357Z" transform="translate(-805.605 -225.479)" fill="#fff"/>
  </g>
</svg>
