<svg xmlns="http://www.w3.org/2000/svg" width="83.372" height="66.21" viewBox="0 0 83.372 66.21">
  <g id="Group_32001" data-name="Group 32001" transform="translate(0 0.001)">
    <g id="Group_911" data-name="Group 911" transform="translate(30.467 12.859)">
      <path id="Path_4199" data-name="Path 4199" d="M5.554,17.649a.709.709,0,0,1-1.238-.694A14.5,14.5,0,0,0,5.71,13.517a14.5,14.5,0,0,0,.472-3.681,14.507,14.507,0,0,0-.564-4.029A14.449,14.449,0,0,0,3.95,2.1a.708.708,0,1,1,1.2-.755A15.853,15.853,0,0,1,6.977,5.413,15.93,15.93,0,0,1,7.6,9.836a15.906,15.906,0,0,1-.522,4.036,15.928,15.928,0,0,1-1.527,3.776Z" transform="translate(24.256 1.163)" fill="#6bbfa3"/>
      <path id="Path_4201" data-name="Path 4201" d="M9.015,21.763a.708.708,0,0,0,.511-1.321,9.408,9.408,0,1,1,7.091-.106.709.709,0,1,0,.555,1.3,10.827,10.827,0,1,0-8.156.123Z" transform="translate(2.988 -0.85)" fill="#6bbfa3"/>
      <path id="Path_4202" data-name="Path 4202" d="M5.2,2.918l-.006.01a.71.71,0,1,1-1.232-.7l.006-.01Z" transform="translate(24.585 15.941)" fill="#6bbfa3"/>
      <path id="Path_4203" data-name="Path 4203" d="M5.149,1.344a.708.708,0,0,0-1.2.755l0,.006a.708.708,0,0,0,1.2-.755l0-.006Z" transform="translate(24.253 1.158)" fill="#6bbfa3"/>
      <path id="Path_4204" data-name="Path 4204" d="M2.015,1.392a.709.709,0,1,0,1.2.749l.029-.047a.709.709,0,0,0-1.2-.749Z" transform="translate(0.435 1.119)" fill="#6bbfa3"/>
      <path id="Path_4205" data-name="Path 4205" d="M3.781,17.649a.709.709,0,0,0,1.238-.694A14.482,14.482,0,0,1,5.384,2.1a.708.708,0,0,0-1.2-.755,15.932,15.932,0,0,0-.4,16.3Z" transform="translate(-1.732 1.163)" fill="#6bbfa3"/>
      <path id="Path_4206" data-name="Path 4206" d="M2,3.291l-.028-.05a.708.708,0,1,1,1.232-.7l.028.05L2,3.291Z" transform="translate(0.08 15.574)" fill="#6bbfa3"/>
    </g>
    <path id="Path_4221" data-name="Path 4221" d="M3.817,0C1.709,0,0,.628,0,1.4s1.709,1.4,3.817,1.4H42.86c2.108,0,3.817-.628,3.817-1.4S44.968,0,42.86,0Z" transform="translate(22.346 0) rotate(90)" fill="#e1e2e3"/>
    <path id="Path_4222" data-name="Path 4222" d="M1.7,0a1.7,1.7,0,0,0,0,3.4h5.1a1.7,1.7,0,0,0,0-3.4Z" transform="translate(76.368 18.016) rotate(90)" fill="#e1e2e3"/>
    <path id="Ellipse_169" data-name="Ellipse 169" d="M5.706,2.445a3.26,3.26,0,1,0,3.26,3.26,3.264,3.264,0,0,0-3.26-3.26M5.706,0A5.706,5.706,0,1,1,0,5.706,5.706,5.706,0,0,1,5.706,0Z" transform="translate(5.25 16.721)" fill="#e1e2e3"/>
    <g id="Group_912" data-name="Group 912" transform="translate(0 -0.001)">
      <path id="Path_4226" data-name="Path 4226" d="M421.264,168.757h-67.07a8.151,8.151,0,0,0-8.151,8.151V207.68a8.151,8.151,0,0,0,8.151,8.151h30.739l-1.281-3.26H354.194a4.9,4.9,0,0,1-4.891-4.891V176.908a4.9,4.9,0,0,1,4.891-4.891h67.07a4.9,4.9,0,0,1,4.891,4.891V207.68a4.9,4.9,0,0,1-4.891,4.891H404.843v3.26h16.421a8.151,8.151,0,0,0,8.151-8.151V176.908A8.151,8.151,0,0,0,421.264,168.757Z" transform="translate(-346.043 -168.757)" fill="#e1e2e3"/>
    </g>
    <path id="Path_4224" data-name="Path 4224" d="M23.565,21.162c.506-4.64-.814-7.078-2.695-10.55-.692-1.277-1.455-2.687-2.239-4.389a.693.693,0,0,0-.385-.36.7.7,0,0,0-.469-.011l-.038.019-.007,0-.015.007-.015.006-.007,0-.037.015a.69.69,0,0,0-.307.355.7.7,0,0,0-.005.492h0l.02.043h0v0l.008.019,0,0q.015.035.026.071l.284.639a1.277,1.277,0,0,1,.08.809h0a1.042,1.042,0,0,1-.049.156,1.287,1.287,0,0,1-1.493.8h0a1.039,1.039,0,0,1-.155-.049,1.263,1.263,0,0,1-.724-.68l.105-.047h0l-.109.048q-.021-.048-.037-.1l-.97-2.184a.714.714,0,0,0-.4-.378.724.724,0,0,0-.554.013l0,0-.036.015h0l-.005,0-.016.006,0,0a.714.714,0,0,0-.32.368.724.724,0,0,0,.013.554l0,0,.015.036h0l0,0,.007.018,0,0,.007.02,0,.007,0,.006.683,1.538A1.188,1.188,0,0,1,13.5,9.871a1.275,1.275,0,0,1-.863.382,1.188,1.188,0,0,1-1.173-.741L10.343,6.979l0,0-.02-.043h0v0l-.009-.02v0L10.3,6.89h0l0-.012a.679.679,0,0,0-.349-.3.689.689,0,0,0-.483-.005v0l-.043.02h0L9.4,6.6,9.4,6.6l-.022.009h0l-.012,0a.679.679,0,0,0-.3.349.689.689,0,0,0,.012.527l0,0q.021.048.037.1l1.394,3.139a1.379,1.379,0,0,1,.053.992,1.393,1.393,0,0,1-.635.777c-.048.028-.09.049-.124.064h0a1.038,1.038,0,0,1-.18.061,1.372,1.372,0,0,1-.814-.012l.036-.112,0,0L8.8,12.61l-.07-.026a1.389,1.389,0,0,1-.7-.61c-.027-.047-.048-.088-.064-.123h0q-.021-.047-.037-.1L3.793,2.445a.643.643,0,0,0-.358-.34.653.653,0,0,0-.5.012l0,0-.06.024a.643.643,0,0,0-.284.33.653.653,0,0,0,.012.5l0,0q.021.048.037.1L9.074,17.537a1.074,1.074,0,0,1-.593,1.484h0s0,0,0,0v0a1.044,1.044,0,0,1-.149.087c-.639.353-1.107-.068-1.792-.686-.837-.755-2.392-2.159-3.361-2.245l.089-1.026-.091,1.03a1.036,1.036,0,0,1-.253-.055.717.717,0,0,0-.452,1.35l-.436.934.439-.937a1.036,1.036,0,0,1,.229.147A29.406,29.406,0,0,1,6.9,21.361c1.635,1.7,2.7,2.816,7.1,3.813L13.77,26.18,14,25.171a1.039,1.039,0,0,1,.2.069,2.478,2.478,0,0,1,1.332,1.3h0l.013.032,8.388-3.725-.182-.439h0l-.005-.013h0l-.014-.035a2.457,2.457,0,0,1-.167-1.2ZM22.689,9.633c2.059,3.8,3.5,6.47,2.929,11.746a.436.436,0,0,0,0,.111.423.423,0,0,0,.022.084l.014.033L24.7,22l.954-.392.432,1.044c.01.02.02.041.029.062h0a1.309,1.309,0,0,1-.677,1.717l-9.673,4.3q-.038.021-.078.04l-.007,0-.009,0h0l-.01,0-.125-.29h0l.124.289a1.308,1.308,0,0,1-1.613-.485,1.038,1.038,0,0,1-.1-.172l0,0-.006-.014h0l-.013-.031.343-.139h0l-.341.138-.279-.688-.011-.025h0a.4.4,0,0,0-.09-.131.375.375,0,0,0-.1-.066c-4.926-1.13-6.159-2.414-8.039-4.373a27.625,27.625,0,0,0-3.921-3.5,2.778,2.778,0,0,1,1.979-5.152,5.62,5.62,0,0,1,2.283.989L.766,3.9a1.03,1.03,0,0,1-.093-.216A2.708,2.708,0,0,1,1.981.291,1.03,1.03,0,0,1,2.222.184,2.709,2.709,0,0,1,5.677,1.612L7.459,5.626a2.734,2.734,0,0,1,1-.863,1.032,1.032,0,0,1,.24-.107,2.731,2.731,0,0,1,1.977,0,2.759,2.759,0,0,1,.685.383,2.771,2.771,0,0,1,1.065-.94l.022-.013.022-.012h0l.02-.011,0,0,.019-.009,0,0,.018-.008,0,0h0l.035-.015,0,0a2.781,2.781,0,0,1,3.242.791,2.746,2.746,0,0,1,.935-.767,1.039,1.039,0,0,1,.117-.061l0,0h0l.38.859.037.083-.416-.942a2.755,2.755,0,0,1,3.623,1.365C21.263,7,22.011,8.382,22.689,9.633ZM9.4,6.6l-.022.009M9.24,11.289h0l.144.325-.143-.325Zm0,0h0l.612-.27h0v0l-.618.272h0Zm0,0h0Zm-1.416,6.8h0l.062.088-.062-.088Zm-.332-.473v0l.332.47h0Z" transform="translate(45.347 27.939) rotate(31)" fill="#6bbfa3"/>
  </g>
</svg>
