<svg id="Play-btn" xmlns="http://www.w3.org/2000/svg" xmlns:xlink="http://www.w3.org/1999/xlink" width="98" height="98" viewBox="0 0 98 98">
  <defs>
    <radialGradient id="radial-gradient" cx="0.5" cy="0.5" r="0.626" gradientTransform="translate(0 0.02) scale(1 0.961)" gradientUnits="objectBoundingBox">
      <stop offset="0" stop-color="#00865b"/>
      <stop offset="1" stop-color="#00432e"/>
    </radialGradient>
    <filter id="Path_20546" x="0" y="0" width="98" height="98" filterUnits="userSpaceOnUse">
      <feOffset dy="4" input="SourceAlpha"/>
      <feGaussianBlur stdDeviation="4" result="blur"/>
      <feFlood flood-opacity="0.251" result="color"/>
      <feComposite operator="out" in="SourceGraphic" in2="blur"/>
      <feComposite operator="in" in="color"/>
      <feComposite operator="in" in2="SourceGraphic"/>
    </filter>
    <linearGradient id="linear-gradient" x1="1.13" y1="0.51" x2="0.269" y2="0.502" gradientUnits="objectBoundingBox">
      <stop offset="0" stop-color="#bb5812"/>
      <stop offset="1" stop-color="#bc4921" stop-opacity="0"/>
    </linearGradient>
    <linearGradient id="linear-gradient-2" x1="-10.31" y1="21.133" x2="-11.123" y2="21.124" gradientUnits="objectBoundingBox">
      <stop offset="0" stop-color="#ffd200"/>
      <stop offset="1" stop-color="#fff039" stop-opacity="0"/>
    </linearGradient>
    <linearGradient id="linear-gradient-3" x1="-25.427" y1="0.095" x2="-26.24" y2="0.086" xlink:href="#linear-gradient"/>
  </defs>
  <g id="Button-bg-02">
    <g data-type="innerShadowGroup">
      <path id="Path_20546-2" data-name="Path 20546" d="M17.5,0h63A17.5,17.5,0,0,1,98,17.5v63A17.5,17.5,0,0,1,80.5,98h-63A17.5,17.5,0,0,1,0,80.5v-63A17.5,17.5,0,0,1,17.5,0Z" transform="translate(0 0)" fill="url(#radial-gradient)"/>
      <g transform="matrix(1, 0, 0, 1, 0, 0)" filter="url(#Path_20546)">
        <path id="Path_20546-3" data-name="Path 20546" d="M17.5,0h63A17.5,17.5,0,0,1,98,17.5v63A17.5,17.5,0,0,1,80.5,98h-63A17.5,17.5,0,0,1,0,80.5v-63A17.5,17.5,0,0,1,17.5,0Z" transform="translate(0 0)" fill="#fff"/>
      </g>
    </g>
    <path id="Path_19771_-_Outline" data-name="Path 19771 - Outline" d="M17.5,3.5a14,14,0,0,0-14,14v63a14,14,0,0,0,14,14h63a14,14,0,0,0,14-14v-63a14,14,0,0,0-14-14h-63m0-3.5h63A17.5,17.5,0,0,1,98,17.5v63A17.5,17.5,0,0,1,80.5,98h-63A17.5,17.5,0,0,1,0,80.5v-63A17.5,17.5,0,0,1,17.5,0Z" transform="translate(0 0)" fill="#6bbfa3"/>
  </g>
  <g id="Group_31539" data-name="Group 31539" transform="translate(27.503 21)">
    <path id="Path_19774" data-name="Path 19774" d="M314.427,105.492,280,85.011a7.025,7.025,0,0,0-7.287,0,7.475,7.475,0,0,0-3.643,6.5v40.96a7.475,7.475,0,0,0,3.643,6.5,7.029,7.029,0,0,0,7.287,0l34.427-20.481a7.621,7.621,0,0,0,0-13Z" transform="translate(-269.071 -83.992)" fill="#69410c"/>
    <path id="Path_19775" data-name="Path 19775" d="M310.73,106.6a4.021,4.021,0,0,1,0,6.838l-16.55,9.9-16.552,9.9a3.811,3.811,0,0,1-5.714-3.419V90.215a3.81,3.81,0,0,1,5.714-3.419l16.552,9.9Z" transform="translate(-267.776 -82.959)" fill="#fe9d2b"/>
    <path id="Path_19776" data-name="Path 19776" d="M271.915,90.177v4.666l4.528-2.859a4.973,4.973,0,0,1-.655-3.575c.4-2.014,1.271-1.934,1.3-1.93A3.909,3.909,0,0,0,271.915,90.177Z" transform="translate(-267.776 -82.957)" fill="#ffba1b"/>
    <path id="Path_19777" data-name="Path 19777" d="M271.918,94.783s-.2-2.125,1.088-3.091,1.692-.47,1.864-2.228a3.858,3.858,0,0,1,1.255-2.813.935.935,0,0,1,.83-.23s-1.216.249-1.347,2.535,1.772,2.911,3.2,3.792,26.844,15.357,27.643,15.67,5.17,0,5.17,0-4.258.86-4.486,1.329a18.61,18.61,0,0,1-.609,2.423,5.419,5.419,0,0,1-2.036,1.883s1.847-1.688,1.542-3.252-29.961-18.445-31.407-18.68S271.989,93.653,271.918,94.783Z" transform="translate(-267.779 -82.897)" fill="#fe0"/>
    <path id="Path_19778" data-name="Path 19778" d="M308.449,104.507a6.725,6.725,0,0,0-3.791,1.189l-31.712,9.87s-.411.7-1.031,1.838v3.723a3.807,3.807,0,0,0,5.708,3.388l16.536-9.816,16.534-9.814a3.972,3.972,0,0,0,.524-.378Z" transform="translate(-267.776 -74.221)" fill="#b4560a"/>
    <path id="Path_19779" data-name="Path 19779" d="M305.577,106.689a3.2,3.2,0,0,1,0,5.6L291.223,120.4,276.871,128.5a3.3,3.3,0,0,1-4.956-2.8V93.272a3.3,3.3,0,0,1,4.956-2.8l14.352,8.11Z" transform="translate(-267.776 -80.813)" fill="#f77e0b"/>
    <path id="Path_19780" data-name="Path 19780" d="M294.88,100.573,276.444,90.2h0l-4.528,9.335v26.1a3.3,3.3,0,0,0,4.956,2.8l7.231-4.086Z" transform="translate(-267.776 -80.74)" fill="#fc9020"/>
    <path id="Path_19781" data-name="Path 19781" d="M298.56,103.976a2.546,2.546,0,0,1,0,4.432l-4.933,2.787-6.583,3.719a1.516,1.516,0,0,1-2.273-1.284V98.756a1.516,1.516,0,0,1,2.273-1.284l6.583,3.719Z" transform="translate(-262.64 -77.725)" fill="url(#linear-gradient)"/>
    <path id="Path_19782" data-name="Path 19782" d="M272.624,93.345a2.547,2.547,0,0,1,3.85-2.2l4.866,2.9,6.493,3.872a1.516,1.516,0,0,1,.013,2.611l-6.459,3.688-6.458,3.688a1.515,1.515,0,0,1-2.241-1.338l-.036-7.56Z" transform="translate(-267.453 -80.789)" fill="url(#linear-gradient-2)"/>
    <path id="Path_19783" data-name="Path 19783" d="M276.484,120.808a2.545,2.545,0,0,1-3.854-2.189l.016-5.665.019-7.561a1.516,1.516,0,0,1,2.239-1.342l6.467,3.675,6.465,3.675a1.515,1.515,0,0,1-.006,2.61l-6.486,3.886Z" transform="translate(-267.45 -74.62)" fill="url(#linear-gradient-3)"/>
  </g>
</svg>
