<svg id="Share-btn" xmlns="http://www.w3.org/2000/svg" xmlns:xlink="http://www.w3.org/1999/xlink" width="48" height="48" viewBox="0 0 48 48">
  <defs>
    <radialGradient id="radial-gradient" cx="0.5" cy="0.5" r="0.626" gradientTransform="translate(0 0.02) scale(1 0.961)" gradientUnits="objectBoundingBox">
      <stop offset="0" stop-color="#00865b"/>
      <stop offset="1" stop-color="#00432e"/>
    </radialGradient>
    <filter id="Path_20546" x="0" y="0" width="48" height="48" filterUnits="userSpaceOnUse">
      <feOffset dy="4" input="SourceAlpha"/>
      <feGaussianBlur stdDeviation="4" result="blur"/>
      <feFlood flood-opacity="0.251" result="color"/>
      <feComposite operator="out" in="SourceGraphic" in2="blur"/>
      <feComposite operator="in" in="color"/>
      <feComposite operator="in" in2="SourceGraphic"/>
    </filter>
  </defs>
  <g id="Button-bg-02">
    <g data-type="innerShadowGroup">
      <path id="Path_20546-2" data-name="Path 20546" d="M8.571,0H39.429A8.571,8.571,0,0,1,48,8.571V39.429A8.571,8.571,0,0,1,39.429,48H8.571A8.571,8.571,0,0,1,0,39.429V8.571A8.571,8.571,0,0,1,8.571,0Z" fill="url(#radial-gradient)"/>
      <g transform="matrix(1, 0, 0, 1, 0, 0)" filter="url(#Path_20546)">
        <path id="Path_20546-3" data-name="Path 20546" d="M8.571,0H39.429A8.571,8.571,0,0,1,48,8.571V39.429A8.571,8.571,0,0,1,39.429,48H8.571A8.571,8.571,0,0,1,0,39.429V8.571A8.571,8.571,0,0,1,8.571,0Z" fill="#fff"/>
      </g>
    </g>
    <path id="Path_19771_-_Outline" data-name="Path 19771 - Outline" d="M8.571,1.714A6.857,6.857,0,0,0,1.714,8.571V39.429a6.857,6.857,0,0,0,6.857,6.857H39.429a6.857,6.857,0,0,0,6.857-6.857V8.571a6.857,6.857,0,0,0-6.857-6.857H8.571M8.571,0H39.429A8.571,8.571,0,0,1,48,8.571V39.429A8.571,8.571,0,0,1,39.429,48H8.571A8.571,8.571,0,0,1,0,39.429V8.571A8.571,8.571,0,0,1,8.571,0Z" fill="#6bbfa3"/>
  </g>
  <g id="Group_31546" data-name="Group 31546" transform="translate(13.371 12.343)">
    <path id="Path_20000" data-name="Path 20000" d="M40.959,505.565a4.2,4.2,0,0,0-3.314-.237.612.612,0,0,1-.6-.084q-1.084-.7-2.172-1.385-.77-.489-1.539-.979a1.728,1.728,0,0,1-.907-1.428A1.784,1.784,0,0,1,33.354,500q.636-.407,1.276-.809c.755-.477,1.536-.97,2.3-1.471a.865.865,0,0,1,.863-.11,4.058,4.058,0,0,0,3.8-.713,3.856,3.856,0,0,0,1.465-3.413,4.034,4.034,0,0,0-3.981-3.684h-.05a4,4,0,0,0-3.991,3.607.727.727,0,0,1-.382.613c-1.261.784-2.726,1.7-4.158,2.65a.872.872,0,0,1-1.036.055,5.273,5.273,0,0,0-5.178.283,5.235,5.235,0,0,0,.115,8.947,5.316,5.316,0,0,0,5.123.185.771.771,0,0,1,.92.05c1.308.86,2.669,1.725,4.161,2.646a.806.806,0,0,1,.44.692,3.976,3.976,0,0,0,3.084,3.459c.018,0,.067.023.1.036l.121.044.141.048H39.6l.179-.082.083-.041a4.169,4.169,0,0,0,2.65-1.881,3.889,3.889,0,0,0,.407-3.094A3.936,3.936,0,0,0,40.959,505.565Z" transform="translate(-21.821 -489.8)" fill="#002b7f"/>
    <g id="Group_31385" data-name="Group 31385" transform="translate(0.897 0.598)">
      <path id="Path_20001" data-name="Path 20001" d="M43.317,515.037c-.1-.035-.206-.08-.312-.1a3.077,3.077,0,0,1-2.395-2.679,1.684,1.684,0,0,0-.859-1.358q-2.087-1.286-4.138-2.63a1.652,1.652,0,0,0-1.818-.1,4.385,4.385,0,1,1-.055-7.818,1.751,1.751,0,0,0,1.931-.113c1.362-.9,2.748-1.771,4.136-2.634a1.607,1.607,0,0,0,.8-1.262,3.107,3.107,0,0,1,3.141-2.82,3.116,3.116,0,1,1-1,6.071,1.753,1.753,0,0,0-1.636.213c-1.178.773-2.377,1.514-3.564,2.273a2.465,2.465,0,0,0-.018,4.373c1.235.789,2.476,1.569,3.709,2.361a1.507,1.507,0,0,0,1.369.181,3.134,3.134,0,0,1,4.126,2.081,3.1,3.1,0,0,1-2.464,3.884.988.988,0,0,0-.189.085Z" transform="translate(-27.398 -493.518)" fill="#009cdc"/>
    </g>
    <g id="Group_31386" data-name="Group 31386" transform="translate(0.897 2.314)">
      <path id="Path_20002" data-name="Path 20002" d="M90.547,504.182c-.128.679.35,1.831-1.038,2.611s-3.14-.149-3.559,0-4.546,2.662-5.612,3.978,0,3.176,0,3.176h0a2.547,2.547,0,0,1,1.251-2.842c1.189-.766,2.39-1.514,3.57-2.295A1.745,1.745,0,0,1,86.8,508.6a3.145,3.145,0,0,0,4.1-3.216A3.4,3.4,0,0,0,90.547,504.182Z" transform="translate(-71.454 -504.182)" fill="#0063b0"/>
      <path id="Path_20003" data-name="Path 20003" d="M43.314,563.2h.763a.992.992,0,0,1,.189-.085,3.629,3.629,0,0,0,.455-.133,3.727,3.727,0,0,1-2.315-.791,4.045,4.045,0,0,1-1.194-3.649c0-.329-3.7-2.273-4.866-3.29s-1.493-2.811-1.791-1.884-2.418,2.512-5.105.9a3.436,3.436,0,0,1-1.734-3.595,4.415,4.415,0,0,0,6.079,5.59,1.639,1.639,0,0,1,1.817.1q2.048,1.359,4.137,2.655a1.7,1.7,0,0,1,.859,1.371A3.1,3.1,0,0,0,43,563.1C43.109,563.12,43.21,563.165,43.314,563.2Z" transform="translate(-27.398 -543.397)" fill="#0063b0"/>
    </g>
    <ellipse id="Ellipse_20" data-name="Ellipse 20" cx="1.848" cy="2.43" rx="1.848" ry="2.43" transform="translate(3.193 10.766) rotate(-83.75)" fill="#4cc5f5"/>
    <path id="Path_20004" data-name="Path 20004" d="M52.935,537.22a1.173,1.173,0,0,1-1.4.838c-.711-.078-1.24-.579-1.181-1.12a1.173,1.173,0,0,1,1.4-.838C52.466,536.177,52.994,536.679,52.935,537.22Z" transform="translate(-45.771 -528.712)" fill="#b2e4fb"/>
    <path id="Path_20005" data-name="Path 20005" d="M122.355,497.794a1.78,1.78,0,0,1-2.117,1.272c-1.079-.118-1.881-.879-1.791-1.7a1.779,1.779,0,0,1,2.117-1.272C121.643,496.212,122.445,496.973,122.355,497.794Z" transform="translate(-102.925 -495.068)" fill="#4cc5f5"/>
    <path id="Path_20006" data-name="Path 20006" d="M128.75,496.874a.753.753,0,0,1-.9.538c-.456-.05-.8-.372-.758-.719a.753.753,0,0,1,.9-.538C128.449,496.2,128.788,496.527,128.75,496.874Z" transform="translate(-110.187 -495.127)" fill="#b2e4fb"/>
    <ellipse id="Ellipse_21" data-name="Ellipse 21" cx="1.568" cy="2.062" rx="1.568" ry="2.062" transform="matrix(0.294, -0.956, 0.956, 0.294, 15.38, 18.71)" fill="#4cc5f5"/>
    <path id="Path_20007" data-name="Path 20007" d="M131.794,594.106a.863.863,0,1,1-.609-.849A.752.752,0,0,1,131.794,594.106Z" transform="translate(-112.779 -576.725)" fill="#b2e4fb"/>
  </g>
</svg>
