<svg id="Twitter" xmlns="http://www.w3.org/2000/svg" xmlns:xlink="http://www.w3.org/1999/xlink" width="86.063" height="86.063" viewBox="0 0 86.063 86.063">
  <defs>
    <radialGradient id="radial-gradient" cx="0.5" cy="0.5" r="0.626" gradientTransform="translate(0 0.02) scale(1 0.961)" gradientUnits="objectBoundingBox">
      <stop offset="0" stop-color="#00865b"/>
      <stop offset="1" stop-color="#00432e"/>
    </radialGradient>
    <filter id="Path_20546" x="0" y="0" width="86.063" height="86.063" filterUnits="userSpaceOnUse">
      <feOffset dy="4" input="SourceAlpha"/>
      <feGaussianBlur stdDeviation="4" result="blur"/>
      <feFlood flood-opacity="0.251" result="color"/>
      <feComposite operator="out" in="SourceGraphic" in2="blur"/>
      <feComposite operator="in" in="color"/>
      <feComposite operator="in" in2="SourceGraphic"/>
    </filter>
  </defs>
  <g id="Button-bg-02">
    <g data-type="innerShadowGroup">
      <path id="Path_20546-2" data-name="Path 20546" d="M15.368,0H70.694A15.368,15.368,0,0,1,86.063,15.368V70.694A15.368,15.368,0,0,1,70.694,86.063H15.368A15.368,15.368,0,0,1,0,70.694V15.368A15.368,15.368,0,0,1,15.368,0Z" fill="url(#radial-gradient)"/>
      <g transform="matrix(1, 0, 0, 1, 0, 0)" filter="url(#Path_20546)">
        <path id="Path_20546-3" data-name="Path 20546" d="M15.368,0H70.694A15.368,15.368,0,0,1,86.063,15.368V70.694A15.368,15.368,0,0,1,70.694,86.063H15.368A15.368,15.368,0,0,1,0,70.694V15.368A15.368,15.368,0,0,1,15.368,0Z" fill="#fff"/>
      </g>
    </g>
    <path id="Path_19771_-_Outline" data-name="Path 19771 - Outline" d="M15.368,3.074A12.295,12.295,0,0,0,3.074,15.368V70.694A12.295,12.295,0,0,0,15.368,82.989H70.694A12.295,12.295,0,0,0,82.989,70.694V15.368A12.295,12.295,0,0,0,70.694,3.074H15.368m0-3.074H70.694A15.368,15.368,0,0,1,86.063,15.368V70.694A15.368,15.368,0,0,1,70.694,86.063H15.368A15.368,15.368,0,0,1,0,70.694V15.368A15.368,15.368,0,0,1,15.368,0Z" fill="#6bbfa3"/>
    <path id="Icon_awesome-twitter" data-name="Icon awesome-twitter" d="M34.956,11.267c.025.346.025.692.025,1.038,0,10.556-8.034,22.719-22.719,22.719A22.565,22.565,0,0,1,0,31.44a16.518,16.518,0,0,0,1.928.1,15.992,15.992,0,0,0,9.913-3.412,8,8,0,0,1-7.466-5.538,10.069,10.069,0,0,0,1.508.124,8.445,8.445,0,0,0,2.1-.272,7.986,7.986,0,0,1-6.4-7.837v-.1a8.042,8.042,0,0,0,3.609,1.014A8,8,0,0,1,2.719,4.839,22.7,22.7,0,0,0,19.184,13.2a9.014,9.014,0,0,1-.2-1.829A7.993,7.993,0,0,1,32.806,5.9a15.721,15.721,0,0,0,5.068-1.928,7.964,7.964,0,0,1-3.51,4.4,16.008,16.008,0,0,0,4.6-1.236,17.165,17.165,0,0,1-4,4.128Z" transform="translate(23.551 23.829)" fill="#fff"/>
  </g>
</svg>
