<svg id="Register" xmlns="http://www.w3.org/2000/svg" xmlns:xlink="http://www.w3.org/1999/xlink" width="98" height="98" viewBox="0 0 98 98">
  <defs>
    <radialGradient id="radial-gradient" cx="0.5" cy="0.5" r="0.626" gradientTransform="translate(0 0.02) scale(1 0.961)" gradientUnits="objectBoundingBox">
      <stop offset="0" stop-color="#00865b"/>
      <stop offset="1" stop-color="#00432e"/>
    </radialGradient>
    <filter id="Path_20546" x="0" y="0" width="98" height="98" filterUnits="userSpaceOnUse">
      <feOffset dy="4" input="SourceAlpha"/>
      <feGaussianBlur stdDeviation="4" result="blur"/>
      <feFlood flood-opacity="0.251" result="color"/>
      <feComposite operator="out" in="SourceGraphic" in2="blur"/>
      <feComposite operator="in" in="color"/>
      <feComposite operator="in" in2="SourceGraphic"/>
    </filter>
  </defs>
  <g id="Button-bg-02">
    <g data-type="innerShadowGroup">
      <path id="Path_20546-2" data-name="Path 20546" d="M17.5,0h63A17.5,17.5,0,0,1,98,17.5v63A17.5,17.5,0,0,1,80.5,98h-63A17.5,17.5,0,0,1,0,80.5v-63A17.5,17.5,0,0,1,17.5,0Z" fill="url(#radial-gradient)"/>
      <g transform="matrix(1, 0, 0, 1, 0, 0)" filter="url(#Path_20546)">
        <path id="Path_20546-3" data-name="Path 20546" d="M17.5,0h63A17.5,17.5,0,0,1,98,17.5v63A17.5,17.5,0,0,1,80.5,98h-63A17.5,17.5,0,0,1,0,80.5v-63A17.5,17.5,0,0,1,17.5,0Z" fill="#fff"/>
      </g>
    </g>
    <path id="Path_19771_-_Outline" data-name="Path 19771 - Outline" d="M17.5,3.5a14,14,0,0,0-14,14v63a14,14,0,0,0,14,14h63a14,14,0,0,0,14-14v-63a14,14,0,0,0-14-14h-63m0-3.5h63A17.5,17.5,0,0,1,98,17.5v63A17.5,17.5,0,0,1,80.5,98h-63A17.5,17.5,0,0,1,0,80.5v-63A17.5,17.5,0,0,1,17.5,0Z" fill="#6bbfa3"/>
  </g>
  <g id="Group_31779" data-name="Group 31779" transform="translate(27.446 20)">
    <path id="Path_20094" data-name="Path 20094" d="M291.9,70.72l0,0a3.005,3.005,0,0,0-1.442-.8,18.188,18.188,0,0,0-4.6-10.477,43.388,43.388,0,0,0-4.732-4.221l-.243-.2,0-.005c.074-.09.144-.18.213-.271l.1-.129c.061-.077.122-.155.179-.233.078-.106.152-.213.225-.32l.081-.118c.048-.068.1-.137.141-.206.085-.13.165-.26.258-.413l.036-.059c.037-.06.074-.119.111-.183.087-.148.168-.3.245-.443l.026-.047c.032-.058.063-.117.091-.171.082-.161.159-.322.234-.482l.02-.043c.023-.048.045-.1.067-.144.077-.172.149-.345.218-.518l.065-.162c.07-.183.135-.365.207-.575l.035-.1c.064-.193.121-.387.184-.61l.021-.076c.055-.2.1-.406.152-.619l.014-.063q.069-.318.123-.637l.009-.049q.053-.32.09-.639l.005-.044q.039-.336.061-.672l0-.075c.013-.207.021-.414.024-.62a14.25,14.25,0,0,0-3.933-10.066,14,14,0,0,0-19.061-.848,14.308,14.308,0,0,0-2.641,2.99l-.067.1c-.13.2-.255.41-.383.635l-.059.1a13.175,13.175,0,0,0-.7,1.472c-.025.062-.049.125-.069.176-.083.215-.161.434-.238.669l-.038.112c-.079.252-.153.514-.219.778-.012.046-.023.092-.033.139l-.008.035c-.05.211-.1.425-.135.63-.015.077-.03.154-.043.229-.052.3-.092.563-.121.816a13.733,13.733,0,0,0,3.148,10.707,20.42,20.42,0,0,0-7.3,7.723l-.06.113c-.189.36-.374.739-.547,1.123-.061.135-.12.271-.182.415-.1.223-.188.448-.274.672s-.161.422-.237.635l-.014.039c-.039.111-.079.222-.114.327-.1.309-.2.631-.3.959l-.068.244c-.11.4-.2.752-.278,1.087-1.424,6.213.352,9.543,6.335,11.878l.243.1a8.338,8.338,0,0,0,1.581.507c.7.133,1.393.28,2.09.426a48.544,48.544,0,0,0,5.8.971c.634.055,1.287.1,1.941.132a3.166,3.166,0,0,0,2.162.829h3.631v3.752a3.129,3.129,0,0,0,3.134,3.132h5.781a3.1,3.1,0,0,0,3.134-3.132V83.155h3.672a3.1,3.1,0,0,0,3.134-3.132V72.955A3.089,3.089,0,0,0,291.9,70.72Z" transform="translate(-249.682 -32.04)" fill="#003367"/>
    <g id="Group_31424" data-name="Group 31424" transform="translate(2.17 2.152)">
      <path id="Path_20095" data-name="Path 20095" d="M271.114,81.735V76.218a2.436,2.436,0,0,1,.775-1.836,2.566,2.566,0,0,1,1.78-.676h4.238V69.313a2.435,2.435,0,0,1,.776-1.836,2.512,2.512,0,0,1,1.739-.675h5.77a2.443,2.443,0,0,1,2.515,2.511v4.394h2.973a16.181,16.181,0,0,0-4.068-9.51,74.387,74.387,0,0,0-6.538-5.676,11.978,11.978,0,0,0,.933-17.419,11.781,11.781,0,0,0-16.094-.727,11.343,11.343,0,0,0-4.013,7.493c-.528,4.462,1.181,8.022,4.507,10.953A18.608,18.608,0,0,0,255.645,72.07c-1.18,5.141.072,7.444,5.011,9.369a8.438,8.438,0,0,0,1.444.493,75.877,75.877,0,0,0,7.659,1.363q1.01.087,2.017.136A2.452,2.452,0,0,1,271.114,81.735Z" transform="translate(-255.232 -37.543)" fill="#006795"/>
      <path id="Path_20096" data-name="Path 20096" d="M282.612,93.992c-7.024,0-12.718,3.577-12.718,7.989,0,3.973,4.619,7.268,10.667,7.884a2.442,2.442,0,0,1,.466-.59,2.6,2.6,0,0,1,1.8-.685h4.29v-4.456a2.471,2.471,0,0,1,.786-1.862,2.54,2.54,0,0,1,1.761-.685h5.649C294.989,97.358,289.427,93.992,282.612,93.992Z" transform="translate(-264.161 -72.289)" fill="#117ec4"/>
      <path id="Path_20097" data-name="Path 20097" d="M307,101.974c-.188,1.626-2.439,2.7-5.027,2.4s-4.533-1.861-4.345-3.486,2.439-2.7,5.027-2.4S307.188,100.348,307,101.974Z" transform="translate(-281.296 -74.944)" fill="#57a6dd"/>
      <path id="Path_20098" data-name="Path 20098" d="M291.764,66.378a12.22,12.22,0,0,0,4.294-9.046,8.989,8.989,0,0,1-2.417,3.52c-3.414,3.026-14.434,5.2-18.313-.62-3.8-5.7-.9-10.092-.777-10.269a11.439,11.439,0,0,0-2.2,5.613c-.534,4.524,1.2,8.134,4.563,11.106-.089.043-.173.089-.262.132A13.8,13.8,0,0,0,291.764,66.378Z" transform="translate(-265.795 -45.108)" fill="#005380"/>
      <g id="Group_31420" data-name="Group 31420" transform="translate(17.178 30.578)">
        <path id="Path_20099" data-name="Path 20099" d="M320.92,131.974h-4.889a1,1,0,0,0-.7.269.941.941,0,0,0-.29.725v4.972a1,1,0,0,1-.269.7.942.942,0,0,1-.725.29H308.2a.991.991,0,0,1-.995-.995v-4.972a.928.928,0,0,0-.994-.995h-4.848a1.008,1.008,0,0,1-.746-.29.958.958,0,0,1-.29-.7v-5.593a.942.942,0,0,1,.29-.725,1.052,1.052,0,0,1,.746-.269h4.848a.943.943,0,0,0,.725-.29,1,1,0,0,0,.269-.7v-5.013a.943.943,0,0,1,.29-.725,1,1,0,0,1,.7-.269h5.842a.928.928,0,0,1,.995.994V123.4a.99.99,0,0,0,.994.995h4.889a.928.928,0,0,1,.995.994v5.593a1,1,0,0,1-.269.7A.942.942,0,0,1,320.92,131.974Z" transform="translate(-300.328 -117.39)" fill="#78b52e"/>
      </g>
      <g id="Group_31421" data-name="Group 31421" transform="translate(17.178 32.13)">
        <path id="Path_20100" data-name="Path 20100" d="M320.92,135.943h-4.889a1,1,0,0,0-.7.269.94.94,0,0,0-.29.725v4.972a1,1,0,0,1-.269.7.942.942,0,0,1-.725.29H308.2a.991.991,0,0,1-.995-.994v-4.972a.928.928,0,0,0-.994-.994h-4.848a1.008,1.008,0,0,1-.746-.29.957.957,0,0,1-.29-.7v-5.594a.942.942,0,0,1,.29-.725,1.052,1.052,0,0,1,.746-.269h4.848a.942.942,0,0,0,.725-.29,1,1,0,0,0,.269-.7v-5.013a.942.942,0,0,1,.29-.725,1,1,0,0,1,.7-.269h5.842a.929.929,0,0,1,.995.995v5.013a.99.99,0,0,0,.994.994h4.889a.928.928,0,0,1,.995.994v5.594a1,1,0,0,1-.269.7A.942.942,0,0,1,320.92,135.943Z" transform="translate(-300.328 -121.359)" fill="#347524"/>
      </g>
      <g id="Group_31422" data-name="Group 31422" transform="translate(18.696 35.203)">
        <path id="Path_20101" data-name="Path 20101" d="M322.325,139.642h-5.33a.712.712,0,0,0-.5.192.674.674,0,0,0-.208.518v5.075a.712.712,0,0,1-.192.5.673.673,0,0,1-.518.208H311.4a.708.708,0,0,1-.711-.711v-5.075a.663.663,0,0,0-.711-.711H304.95a.72.72,0,0,1-.533-.207.685.685,0,0,1-.207-.5v-4a.674.674,0,0,1,.207-.518.754.754,0,0,1,.533-.192h5.026a.674.674,0,0,0,.518-.207.715.715,0,0,0,.192-.5v-3.583a.673.673,0,0,1,.207-.518.712.712,0,0,1,.5-.193h4.175a.664.664,0,0,1,.711.711v3.583a.708.708,0,0,0,.711.711h5.33a.664.664,0,0,1,.711.711v4a.713.713,0,0,1-.193.5A.672.672,0,0,1,322.325,139.642Z" transform="translate(-304.21 -129.218)" fill="#164d20"/>
      </g>
      <g id="Group_31423" data-name="Group 31423" transform="translate(18.696 43.054)">
        <path id="Path_20102" data-name="Path 20102" d="M341.132,150.01H335.8a.712.712,0,0,0-.5.192.673.673,0,0,0-.208.518v1.863a.674.674,0,0,1,.208-.518.712.712,0,0,1,.5-.192h5.33a.672.672,0,0,0,.518-.207.713.713,0,0,0,.193-.5V149.3a.713.713,0,0,1-.193.5A.673.673,0,0,1,341.132,150.01Z" transform="translate(-323.017 -149.299)" fill="#78b52e"/>
        <path id="Path_20103" data-name="Path 20103" d="M310.687,150.72a.663.663,0,0,0-.711-.71H304.95a.721.721,0,0,1-.533-.207.685.685,0,0,1-.207-.5v1.862a.685.685,0,0,0,.207.5.72.72,0,0,0,.533.207h5.026a.663.663,0,0,1,.711.711Z" transform="translate(-304.21 -149.299)" fill="#78b52e"/>
        <path id="Path_20104" data-name="Path 20104" d="M325.662,166.624h-4.175a.708.708,0,0,1-.711-.711v1.863a.708.708,0,0,0,.711.711h4.175a.673.673,0,0,0,.518-.208.713.713,0,0,0,.192-.5v-1.863a.713.713,0,0,1-.192.5A.673.673,0,0,1,325.662,166.624Z" transform="translate(-314.299 -159.417)" fill="#78b52e"/>
      </g>
      <ellipse id="Ellipse_33" data-name="Ellipse 33" cx="8.893" cy="6.561" rx="8.893" ry="6.561" transform="translate(10.04 2.004)" fill="#117ec4"/>
      <path id="Path_20105" data-name="Path 20105" d="M305.9,49.018c-.434,1.726-2.683,2.649-5.023,2.06s-3.885-2.465-3.45-4.191,2.683-2.649,5.023-2.06S306.335,47.292,305.9,49.018Z" transform="translate(-281.13 -41.871)" fill="#57a6dd"/>
      <path id="Path_20106" data-name="Path 20106" d="M269,125.132c-3.5-.409-12.013-5.342-11.484-11.032a20.635,20.635,0,0,0-1.862,5.077c-1.194,5.213.073,7.548,5.074,9.5a8.532,8.532,0,0,0,1.461.5,76.718,76.718,0,0,0,7.754,1.382q1.022.088,2.042.138a2.489,2.489,0,0,1-.67-1.72v-2.8A3.778,3.778,0,0,0,269,125.132Z" transform="translate(-255.232 -84.808)" fill="#005380"/>
    </g>
  </g>
</svg>
