<svg id="Restart-game-btn" xmlns="http://www.w3.org/2000/svg" xmlns:xlink="http://www.w3.org/1999/xlink" width="105.509" height="105.509" viewBox="0 0 105.509 105.509">
  <defs>
    <radialGradient id="radial-gradient" cx="0.5" cy="0.5" r="0.626" gradientTransform="translate(0 0.02) scale(1 0.961)" gradientUnits="objectBoundingBox">
      <stop offset="0" stop-color="#00865b"/>
      <stop offset="1" stop-color="#00432e"/>
    </radialGradient>
    <filter id="Path_20546" x="0" y="0" width="105.509" height="105.509" filterUnits="userSpaceOnUse">
      <feOffset dy="4" input="SourceAlpha"/>
      <feGaussianBlur stdDeviation="4" result="blur"/>
      <feFlood flood-opacity="0.251" result="color"/>
      <feComposite operator="out" in="SourceGraphic" in2="blur"/>
      <feComposite operator="in" in="color"/>
      <feComposite operator="in" in2="SourceGraphic"/>
    </filter>
  </defs>
  <g id="Button-bg-02">
    <g data-type="innerShadowGroup">
      <path id="Path_20546-2" data-name="Path 20546" d="M18.841,0H86.668a18.841,18.841,0,0,1,18.841,18.841V86.668a18.841,18.841,0,0,1-18.841,18.841H18.841A18.841,18.841,0,0,1,0,86.668V18.841A18.841,18.841,0,0,1,18.841,0Z" fill="url(#radial-gradient)"/>
      <g transform="matrix(1, 0, 0, 1, 0, 0)" filter="url(#Path_20546)">
        <path id="Path_20546-3" data-name="Path 20546" d="M18.841,0H86.668a18.841,18.841,0,0,1,18.841,18.841V86.668a18.841,18.841,0,0,1-18.841,18.841H18.841A18.841,18.841,0,0,1,0,86.668V18.841A18.841,18.841,0,0,1,18.841,0Z" fill="#fff"/>
      </g>
    </g>
    <path id="Path_19771_-_Outline" data-name="Path 19771 - Outline" d="M18.841,3.768A15.073,15.073,0,0,0,3.768,18.841V86.668a15.073,15.073,0,0,0,15.073,15.073H86.668a15.073,15.073,0,0,0,15.073-15.073V18.841A15.073,15.073,0,0,0,86.668,3.768H18.841m0-3.768H86.668a18.841,18.841,0,0,1,18.841,18.841V86.668a18.841,18.841,0,0,1-18.841,18.841H18.841A18.841,18.841,0,0,1,0,86.668V18.841A18.841,18.841,0,0,1,18.841,0Z" fill="#6bbfa3"/>
  </g>
  <g id="Group_31545" data-name="Group 31545" transform="translate(27.13 27.131)">
    <path id="Path_19814" data-name="Path 19814" d="M390.415,237.5a3.8,3.8,0,0,0-3.918-.239l-1.925.945a25.892,25.892,0,0,0-44.031,16.3,25.261,25.261,0,0,0,6.883,19.292,25.966,25.966,0,0,0,41.162-4.436,4.3,4.3,0,0,0,.378-3.586,4.44,4.44,0,0,0-2.538-2.691l-4.874-1.984a4.5,4.5,0,0,0-5.413,1.678,11.8,11.8,0,0,1-21.515-5.1,11.51,11.51,0,0,1,2.923-9.121,11.852,11.852,0,0,1,8.784-3.9,11.72,11.72,0,0,1,3.829.639,3.7,3.7,0,0,0-1.934,3.1,3.122,3.122,0,0,0,1.682,2.848l14.334,7.745a3.419,3.419,0,0,0,3.13.061,3.364,3.364,0,0,0,1.847-2.5l2.464-16A3.117,3.117,0,0,0,390.415,237.5Z" transform="translate(-340.476 -230.714)" fill="#5e0b17"/>
    <g id="Group_31338" data-name="Group 31338" transform="translate(2.597 2.316)">
      <path id="Path_19815" data-name="Path 19815" d="M377.012,262.975a13.087,13.087,0,1,1-1.049-15.792c3.594-2.367,8.165-5.363,8.288-5.363h.259a23.007,23.007,0,1,0,1.526,25.638,2.461,2.461,0,0,0-1.231-3.525l-4.722-1.92A2.547,2.547,0,0,0,377.012,262.975Z" transform="translate(-342.747 -232.739)" fill="#e50019"/>
      <path id="Path_19816" data-name="Path 19816" d="M377.012,262.975a13.087,13.087,0,1,1-1.049-15.792c3.594-2.367,8.165-5.363,8.288-5.363h.259a23.007,23.007,0,1,0,1.526,25.638,2.461,2.461,0,0,0-1.231-3.525l-4.722-1.92A2.547,2.547,0,0,0,377.012,262.975Z" transform="translate(-342.747 -232.739)" fill="#f06b59"/>
      <path id="Path_19817" data-name="Path 19817" d="M384.347,261.83a1.426,1.426,0,0,0-1.011-.174,3.341,3.341,0,0,1-1.066.071s-3.931-1.425-4.331-1.736a6.172,6.172,0,0,1-.938-1.727,3.992,3.992,0,0,1,.117,1.783c-.223.543-3.421,5.129-8.263,6.3s-8.373.462-11.615-1.4-5.6-4.372-6.366-6.337,1.679,6.558,6.121,8.314,14.7,4.066,18.7.511,6.751-3.464,7.729-4.219S384.347,261.83,384.347,261.83Z" transform="translate(-341.168 -229.101)" fill="#feb37a"/>
      <path id="Path_19818" data-name="Path 19818" d="M365.727,274.836a23.324,23.324,0,0,0,19.941-11.181,2.764,2.764,0,0,0,.417-1.531v-.007a.68.68,0,0,0-.576-.631c-.981-.2-1.6.936-1.6.936a25.539,25.539,0,0,1-5.611,5.238c-4,2.915-6.6,3.2-15.666,2.977s-13.871-5.908-14.965-8-1.868-2.577-2.665-2.088c-.5.306-.373.907-.209,1.313A23.326,23.326,0,0,0,365.727,274.836Z" transform="translate(-342.474 -228.797)" fill="#a30011"/>
      <path id="Path_19819" data-name="Path 19819" d="M382.642,254.967l2.364-15.489c.186-1.216-1.164-1.952-2.431-1.326L367.136,245.8c-1.266.628-1.5,2.149-.417,2.738l13.756,7.5a1.477,1.477,0,0,0,2.167-1.074l2.364-15.489c.186-1.216-1.164-1.952-2.431-1.326L367.136,245.8c-1.266.628-1.5,2.149-.417,2.738l13.756,7.5A1.477,1.477,0,0,0,382.642,254.967Z" transform="translate(-338.97 -231.994)" fill="#f06b59"/>
      <g id="Group_31336" data-name="Group 31336" transform="translate(5.277 4.685)">
        <path id="Path_19820" data-name="Path 19820" d="M354.89,266.332c1.988,1.284,2.664-.6,1.555-1.493a12.141,12.141,0,0,1-2.079-2.372h.01a12.764,12.764,0,0,1-2.183-5.779,13.288,13.288,0,0,1,20.894-12.149l-.419.2h0l2.58-1.259s-2.27-7.309-8.928-6.6-14.006,3.2-17.931,11.15S352.9,265.046,354.89,266.332Z" transform="translate(-347.361 -236.835)" fill="#a30011"/>
        <path id="Path_19821" data-name="Path 19821" d="M366.515,247.032a1.112,1.112,0,0,0,.456.47l1.133.618h0l12.3,6.707a1.376,1.376,0,0,0,.265.105c.994.206,1.616-.517,1.065-1.117A7.775,7.775,0,0,0,380,252.6s-8.922-4.846-10.565-5.765S366.4,246.588,366.515,247.032Z" transform="translate(-344.179 -235.464)" fill="#a30011"/>
      </g>
      <path id="Path_19822" data-name="Path 19822" d="M381.629,240.965a21.709,21.709,0,0,0-14.1-6.83c-9.33-.933-16.04,4.264-19.638,8.928a20.786,20.786,0,0,0-3.544,16.18,19.174,19.174,0,0,0,6.041,10.588s-7.371-10.945-2.237-21.437,8.938-11.238,16.222-11.638,12.935,2.888,14.414,4.664,5.691,12.942,5.691,12.942.8.25,1.111-1.059,1.81-12.96,2.045-13.5a1.524,1.524,0,0,1,.736-.753s-.822.331-1.138.2a3.214,3.214,0,0,0-1.393-.192c-.381.066-3.749,2.709-4.227,2.59S381.629,240.965,381.629,240.965Z" transform="translate(-342.575 -232.554)" fill="#feb37a"/>
      <path id="Path_19823" data-name="Path 19823" d="M381.43,252.785l1.993-13.06c.157-1.026-.982-1.647-2.049-1.117l-13.02,6.452c-1.067.528-1.263,1.812-.352,2.308l11.6,6.325a1.246,1.246,0,0,0,1.828-.907l1.993-13.06c.157-1.026-.982-1.647-2.049-1.117l-13.02,6.452c-1.067.528-1.263,1.812-.352,2.308l11.6,6.325A1.246,1.246,0,0,0,381.43,252.785Z" transform="translate(-338.77 -231.923)" fill="#e50019"/>
      <path id="Path_19824" data-name="Path 19824" d="M383.956,265.864a.373.373,0,0,0-.216-.229l-4.728-1.921a.385.385,0,0,0-.457.171,15.422,15.422,0,0,1-28.1-6.657,15.144,15.144,0,0,1,3.818-11.864,15.486,15.486,0,0,1,11.467-5.079,14.032,14.032,0,0,1,9.807,3.512c2.554-1.25,4.348-2.056,5.578-2.732a21.842,21.842,0,0,0-15.406-6.462q-.779,0-1.563.057a21.072,21.072,0,0,0-19.5,19.331,20.563,20.563,0,0,0,5.627,15.731,21.252,21.252,0,0,0,33.645-3.62A.264.264,0,0,0,383.956,265.864Z" transform="translate(-342.479 -232.471)" fill="#e50019"/>
      <g id="Group_31337" data-name="Group 31337" transform="translate(2.574 2.133)">
        <path id="Path_19825" data-name="Path 19825" d="M362.086,266.182a15.028,15.028,0,0,1-1.6-.263l-3.162,5.03a20.8,20.8,0,0,0,6.358,1c.193,0,.384-.014.575-.019l3.728-6.3A15.3,15.3,0,0,1,362.086,266.182Z" transform="translate(-343.029 -230.175)" fill="#ed4a2d"/>
        <path id="Path_19826" data-name="Path 19826" d="M382.867,239.726c.157-1.026-.982-1.647-2.049-1.117l-3.923,1.943-5.6,8.913,4.968,2.708,6.345-10.725Z" transform="translate(-340.788 -234.056)" fill="#ed4a2d"/>
        <path id="Path_19827" data-name="Path 19827" d="M350.339,257.227a15.225,15.225,0,0,1,15.118-16.942,15.475,15.475,0,0,1,5.3.858l2.7-4.931a21.187,21.187,0,0,0-8.021-1.608q-.77,0-1.546.057a20.605,20.605,0,0,0-6.631,1.622L345,259.771a20.887,20.887,0,0,0,8.523,12.844l2.753-5.027A15.171,15.171,0,0,1,350.339,257.227Z" transform="translate(-344.997 -234.604)" fill="#ed4a2d"/>
      </g>
    </g>
  </g>
</svg>
